<?xml version="1.0" encoding="utf-8"?>
<!-- Generator: Adobe Illustrator 22.0.1, SVG Export Plug-In . SVG Version: 6.00 Build 0)  -->
<svg version="1.1" id="_1" xmlns="http://www.w3.org/2000/svg" xmlns:xlink="http://www.w3.org/1999/xlink" x="0px" y="0px"
	 viewBox="0 0 213.9 41" style="enable-background:new 0 0 213.9 41;" xml:space="preserve">
<style type="text/css">
	.st0{fill:#FFFFFF;}
	.st1{fill:#FF6200;}
</style>
<g>
	<g>
		<path class="st0" d="M45.6,13.1L33,23.1l8.9,1.3H31.8c0.1-0.5-0.2-0.9-0.8-1.1c-0.5-0.1-0.9,0.2-1.1,0.8l0,0h-2.3
			c0-0.1-0.1-0.2-0.1-0.4l2-1.2c0.4,0.4,0.9,0.5,1.4,0.1c0.5-0.4,0.5-0.9,0.1-1.4c-0.4-0.4-0.9-0.5-1.4-0.1
			c-0.2,0.2-0.4,0.7-0.2,1.1l-2,1.2c-0.1-0.1-0.2-0.2-0.2-0.2l1.2-2c0.5,0.2,1.1-0.1,1.3-0.6c0.2-0.5-0.1-1.1-0.6-1.3
			c-0.5-0.2-1.1,0.1-1.3,0.6c-0.1,0.4,0,0.8,0.2,1.1l-1.2,2c-0.1-0.1-0.2-0.1-0.4-0.1v-2.3c0.5-0.1,0.8-0.6,0.8-1.2
			c-0.1-0.5-0.6-0.8-1.2-0.8c-0.5,0.1-0.8,0.6-0.8,1.2c0.1,0.4,0.4,0.7,0.8,0.8v2.3c-0.1,0-0.2,0.1-0.4,0.1l-1.2-2
			c0.4-0.4,0.5-0.9,0.1-1.4c-0.4-0.4-0.9-0.5-1.4-0.1c-0.4,0.4-0.5,0.9-0.1,1.4c0.2,0.2,0.7,0.4,1.1,0.2l1.2,2
			c-0.1,0.1-0.2,0.2-0.2,0.2l-2-1.2c0.2-0.5-0.1-1.1-0.6-1.2s-1.1,0.1-1.2,0.6c-0.2,0.5,0.1,1.1,0.6,1.2c0.4,0.1,0.8,0,0.9-0.2
			l2,1.2c-0.1,0.1-0.1,0.2-0.1,0.4h-2.3c-0.1-0.5-0.6-0.8-1.2-0.8c-0.5,0.1-0.8,0.5-0.8,0.9H10.3l8.9-1.3l-12.8-10l15,6l-3.3-8.3
			l5.5,7l2.5-16.1l2.3,15.9l5.5-7l-3.3,8.3L45.6,13.1z M7.6,31.2H2.5v8.3H0v-10h7.9v1.8L7.6,31.2z M52.1,36.2c0-0.8-0.4-1.8-1.1-2.2
			c-0.7-0.6-1.5-0.9-2.5-0.9h-4.2v-1.9h6.1v-1.6h-8.6v10h6.9c0.9,0,2-0.4,2.5-1.1C51.8,37.7,52.1,37,52.1,36.2z M49.3,36.3
			c0,0.4-0.2,0.8-0.5,1.1c-0.4,0.2-0.8,0.4-1.3,0.4h-3.2v-3h3.3c0.5,0,0.8,0.2,1.2,0.5C49.1,35.5,49.3,36,49.3,36.3z M41.3,32.8
			c0,0.8-0.4,1.8-1.1,2.2c-0.7,0.6-1.5,0.9-2.5,0.9h-4.2v3.5h-2.5v-10H38c0.9,0,2,0.4,2.5,1.1C40.9,31.2,41.3,32.1,41.3,32.8z
			 M38.5,32.7c0-0.4-0.2-0.8-0.5-1.1c-0.4-0.2-0.8-0.4-1.3-0.4h-3.2v3h3.3c0.5,0,0.8-0.2,1.2-0.5C38.2,33.6,38.5,33.2,38.5,32.7
			L38.5,32.7z M26.4,39.5H17v-10h2.5v8.2H24v-8.2h2.5v8.1h1.3v1.9H26.4L26.4,39.5z M16.7,39.5l-4.2-10H10l-4.2,10h2.5L9,37.2h4.2
			l0.8,2.3H16.7z M12.5,35.5H10l1.4-3.5L12.5,35.5z"/>
		<path class="st1" d="M25.2,26H8.4v2.2h16.8V26L25.2,26z M43.7,26H27v2.2h16.8V26z"/>
	</g>
	<g>
		<g>
			<path class="st0" d="M60.1,10.3V1.8h5.1v1.3h-3.6v7.2H60.1z"/>
			<path class="st0" d="M64.3,7.4c0-0.9,0.3-1.6,0.9-2.2c0.6-0.6,1.3-0.8,2.2-0.8s1.6,0.3,2.2,0.8c0.6,0.6,0.9,1.3,0.9,2.2
				c0,0.9-0.3,1.6-0.9,2.2c-0.6,0.6-1.3,0.9-2.2,0.9s-1.6-0.3-2.2-0.9C64.6,9,64.3,8.2,64.3,7.4z M66.2,6.1
				c-0.3,0.4-0.4,0.8-0.4,1.3s0.1,0.9,0.4,1.3c0.3,0.4,0.7,0.6,1.2,0.6s0.9-0.2,1.2-0.6c0.3-0.4,0.4-0.8,0.4-1.3S69,6.4,68.7,6.1
				c-0.3-0.4-0.7-0.6-1.2-0.6S66.5,5.7,66.2,6.1z"/>
			<path class="st0" d="M71.9,10.3c-0.4,0-0.7,0-0.9-0.1l0.1-1.2c0.1,0,0.2,0.1,0.4,0.1c0.4,0,0.6-0.2,0.8-0.6c0.2-0.4,0.3-1,0.3-2
				V4.5h4.7v5.8h-1.4V5.6H74v1.2c0,1.2-0.2,2.1-0.5,2.6C73.2,10.1,72.6,10.3,71.9,10.3z"/>
			<path class="st0" d="M78.8,7.4c0-0.9,0.3-1.6,0.9-2.2c0.6-0.6,1.3-0.8,2.2-0.8s1.6,0.3,2.2,0.8C84.7,5.7,85,6.5,85,7.4
				c0,0.9-0.3,1.6-0.9,2.2c-0.6,0.6-1.3,0.9-2.2,0.9s-1.6-0.3-2.2-0.9C79.1,9,78.8,8.2,78.8,7.4z M80.7,6.1
				c-0.3,0.4-0.4,0.8-0.4,1.3s0.1,0.9,0.4,1.3C81,9,81.4,9.2,81.9,9.2s0.9-0.2,1.2-0.6c0.3-0.4,0.4-0.8,0.4-1.3s-0.1-0.9-0.4-1.3
				c-0.3-0.4-0.7-0.6-1.2-0.6S81,5.7,80.7,6.1z"/>
			<path class="st0" d="M86.4,10.3V4.5h3c0.3,0,0.7,0,0.9,0.1c0.3,0.1,0.5,0.2,0.8,0.5c0.2,0.2,0.3,0.5,0.3,0.9
				c0,0.3-0.1,0.6-0.3,0.8C91,7,90.7,7.1,90.5,7.2v0c0.4,0.1,0.7,0.2,0.9,0.5c0.2,0.2,0.3,0.6,0.3,0.9c0,0.5-0.2,0.9-0.6,1.2
				c-0.4,0.3-0.9,0.4-1.6,0.4H86.4z M87.9,6.8h1.4c0.5,0,0.8-0.2,0.8-0.6c0-0.4-0.3-0.6-0.9-0.6h-1.3V6.8z M87.9,9.2h1.4
				c0.7,0,1-0.2,1-0.7c0-0.5-0.3-0.7-1-0.7h-1.4V9.2z"/>
			<path class="st0" d="M93.1,10.3V4.5h1.4v2.2h2.4V4.5h1.4v5.8h-1.4V7.8h-2.4v2.4H93.1z"/>
			<path class="st0" d="M99.8,7.4c0-0.9,0.3-1.6,0.9-2.2c0.6-0.6,1.3-0.8,2.2-0.8s1.6,0.3,2.2,0.8c0.6,0.6,0.9,1.3,0.9,2.2
				c0,0.9-0.3,1.6-0.9,2.2s-1.3,0.9-2.2,0.9s-1.6-0.3-2.2-0.9S99.8,8.2,99.8,7.4z M101.7,6.1c-0.3,0.4-0.4,0.8-0.4,1.3
				s0.1,0.9,0.4,1.3s0.7,0.6,1.2,0.6c0.5,0,0.9-0.2,1.2-0.6s0.4-0.8,0.4-1.3s-0.1-0.9-0.4-1.3s-0.7-0.6-1.2-0.6
				C102.4,5.5,102,5.7,101.7,6.1z"/>
			<path class="st0" d="M107.4,10.3V4.5h1.4v3.7h0l2.5-3.7h1.6v5.8h-1.4V6.6h0l-2.5,3.7H107.4z M110.2,3.5c-0.5,0-1-0.2-1.3-0.5
				c-0.3-0.3-0.5-0.7-0.6-1.2l0.8-0.1c0,0.3,0.2,0.5,0.4,0.6c0.2,0.1,0.4,0.2,0.7,0.2c0.3,0,0.5-0.1,0.7-0.2
				c0.2-0.1,0.3-0.4,0.4-0.6l0.8,0.2c-0.1,0.5-0.3,0.9-0.6,1.2C111.2,3.3,110.7,3.5,110.2,3.5z"/>
			<path class="st0" d="M116.8,10.3l3.7-8.5h1.3l3.7,8.5h-1.7l-0.8-1.9h-3.7l-0.8,1.9H116.8z M119.7,7h2.6l-1.3-3.5L119.7,7z"/>
			<path class="st0" d="M127.1,10.3V5.6h-1.9V4.5h5.1v1.2h-1.8v4.6H127.1z"/>
			<path class="st0" d="M132.9,10.3V5.6H131V4.5h5.1v1.2h-1.8v4.6H132.9z"/>
			<path class="st0" d="M142.6,7.4c0,0.2,0,0.3,0,0.4h-4.4c0,0.4,0.2,0.7,0.5,1s0.7,0.4,1.1,0.4c0.7,0,1.2-0.2,1.5-0.7l1,0.8
				c-0.6,0.8-1.4,1.2-2.5,1.2c-0.9,0-1.6-0.3-2.2-0.8c-0.6-0.5-0.9-1.3-0.9-2.2s0.3-1.7,0.9-2.2s1.3-0.9,2.2-0.9
				c0.8,0,1.5,0.3,2,0.8C142.4,5.7,142.6,6.4,142.6,7.4z M138.2,6.8h3c0-0.4-0.1-0.7-0.3-1s-0.6-0.4-1-0.4c-0.4,0-0.8,0.1-1.1,0.4
				S138.3,6.4,138.2,6.8z"/>
			<path class="st0" d="M149,5.2l-1,0.9c-0.1-0.2-0.3-0.3-0.5-0.4c-0.2-0.1-0.5-0.2-0.7-0.2c-0.5,0-0.9,0.2-1.2,0.6
				c-0.3,0.4-0.4,0.8-0.4,1.3c0,0.5,0.1,0.9,0.4,1.3c0.3,0.4,0.7,0.6,1.2,0.6c0.5,0,0.9-0.2,1.2-0.5l0.9,0.9
				c-0.5,0.5-1.2,0.8-2.1,0.8c-0.9,0-1.6-0.3-2.2-0.8s-0.9-1.3-0.9-2.2c0-0.9,0.3-1.6,0.9-2.2c0.6-0.6,1.3-0.8,2.2-0.8
				c0.4,0,0.8,0.1,1.2,0.2S148.7,4.9,149,5.2z"/>
			<path class="st0" d="M151.3,10.3V5.6h-1.9V4.5h5.1v1.2h-1.8v4.6H151.3z"/>
			<path class="st0" d="M159.3,10.3V9.5h0c-0.1,0.3-0.4,0.5-0.7,0.6s-0.7,0.2-1.1,0.2c-0.6,0-1.1-0.1-1.5-0.4
				c-0.4-0.3-0.7-0.7-0.7-1.4c0-0.3,0.1-0.6,0.2-0.9c0.2-0.2,0.4-0.4,0.6-0.6s0.6-0.2,0.9-0.3c0.4-0.1,0.7-0.1,1.1-0.2s0.7,0,1.1,0
				V6.5c0-0.3-0.1-0.6-0.4-0.8c-0.2-0.2-0.6-0.3-0.9-0.3c-0.6,0-1.1,0.2-1.6,0.7l-0.7-0.9c0.7-0.6,1.5-0.9,2.4-0.9
				c0.5,0,0.9,0.1,1.3,0.2c0.3,0.1,0.6,0.3,0.8,0.6c0.2,0.2,0.3,0.5,0.4,0.8c0.1,0.3,0.1,0.6,0.1,0.9v3.5H159.3z M159.3,7.8V7.6H159
				c-1.5,0-2.2,0.3-2.2,1c0,0.3,0.1,0.4,0.3,0.6s0.4,0.2,0.7,0.2c0.5,0,0.9-0.1,1.1-0.4C159.2,8.7,159.3,8.3,159.3,7.8z"/>
			<path class="st0" d="M167.3,11.9v-1.6h-4.9V4.5h1.4v4.6h2.4V4.5h1.4v4.6h0.8v2.8H167.3z"/>
			<path class="st0" d="M169.6,10.3V4.5h1.4v3.7h0l2.5-3.7h1.6v5.8h-1.4V6.6h0l-2.5,3.7H169.6z"/>
			<path class="st0" d="M176.5,7.4c0-0.9,0.3-1.6,0.9-2.2c0.6-0.6,1.3-0.8,2.2-0.8s1.6,0.3,2.2,0.8c0.6,0.6,0.9,1.3,0.9,2.2
				c0,0.9-0.3,1.6-0.9,2.2s-1.3,0.9-2.2,0.9s-1.6-0.3-2.2-0.9S176.5,8.2,176.5,7.4z M178.4,6.1c-0.3,0.4-0.4,0.8-0.4,1.3
				s0.1,0.9,0.4,1.3s0.7,0.6,1.2,0.6c0.5,0,0.9-0.2,1.2-0.6s0.4-0.8,0.4-1.3s-0.1-0.9-0.4-1.3s-0.7-0.6-1.2-0.6
				C179.1,5.5,178.7,5.7,178.4,6.1z"/>
			<path class="st0" d="M184.2,10.3V4.5h1.4v2.2h2.4V4.5h1.4v5.8h-1.4V7.8h-2.4v2.4H184.2z"/>
			<path class="st0" d="M191.2,10.3V4.5h1.4v2.2h2.4V4.5h1.4v5.8h-1.4V7.8h-2.4v2.4H191.2z"/>
			<path class="st0" d="M198.3,10.3V4.5h1.4v2h1.2c0.7,0,1.3,0.2,1.7,0.5c0.4,0.3,0.6,0.8,0.6,1.4c0,0.6-0.2,1.1-0.6,1.4
				c-0.4,0.3-1,0.5-1.7,0.5H198.3z M199.7,9.2h0.9c0.4,0,0.8-0.1,1-0.2s0.3-0.3,0.3-0.6c0-0.3-0.1-0.5-0.3-0.6
				c-0.2-0.1-0.5-0.2-1-0.2h-0.9V9.2z M204.3,10.3V4.5h1.4v5.8H204.3z"/>
			<path class="st0" d="M207.5,10.3V4.5h1.4v3.7h0l2.5-3.7h1.6v5.8h-1.4V6.6h0l-2.5,3.7H207.5z M210.2,3.5c-0.5,0-1-0.2-1.3-0.5
				c-0.3-0.3-0.5-0.7-0.6-1.2l0.8-0.1c0,0.3,0.2,0.5,0.4,0.6c0.2,0.1,0.4,0.2,0.7,0.2c0.3,0,0.5-0.1,0.7-0.2
				c0.2-0.1,0.3-0.4,0.4-0.6l0.8,0.2c-0.1,0.5-0.3,0.9-0.6,1.2C211.2,3.3,210.8,3.5,210.2,3.5z"/>
			<path class="st0" d="M64.9,19.6l-1,0.9c-0.1-0.2-0.3-0.3-0.5-0.4c-0.2-0.1-0.5-0.2-0.7-0.2c-0.5,0-0.9,0.2-1.2,0.6
				c-0.3,0.4-0.4,0.8-0.4,1.3c0,0.5,0.1,0.9,0.4,1.3c0.3,0.4,0.7,0.6,1.2,0.6c0.5,0,0.9-0.2,1.2-0.5l0.9,0.9
				c-0.5,0.5-1.2,0.8-2.1,0.8c-0.9,0-1.6-0.3-2.2-0.8s-0.9-1.3-0.9-2.2c0-0.9,0.3-1.6,0.9-2.2s1.3-0.8,2.2-0.8
				c0.4,0,0.8,0.1,1.2,0.2C64.4,19.1,64.7,19.4,64.9,19.6z"/>
			<path class="st0" d="M71.4,21.9c0,0.2,0,0.3,0,0.4H67c0,0.4,0.2,0.7,0.5,1c0.3,0.3,0.7,0.4,1.1,0.4c0.7,0,1.2-0.2,1.5-0.7l1,0.8
				c-0.6,0.8-1.4,1.2-2.5,1.2c-0.9,0-1.6-0.3-2.2-0.8s-0.9-1.3-0.9-2.2s0.3-1.7,0.9-2.2s1.3-0.9,2.2-0.9c0.8,0,1.5,0.3,2,0.8
				C71.1,20.1,71.4,20.9,71.4,21.9z M67,21.2h3c0-0.4-0.1-0.7-0.3-1c-0.2-0.3-0.6-0.4-1-0.4c-0.4,0-0.8,0.1-1.1,0.4S67,20.8,67,21.2
				z"/>
			<path class="st0" d="M72.8,18.9h1.4v0.8h0c0.2-0.3,0.4-0.5,0.8-0.7c0.3-0.2,0.8-0.3,1.2-0.3c0.8,0,1.5,0.3,2,0.9
				c0.5,0.6,0.8,1.3,0.8,2.2c0,0.9-0.3,1.6-0.8,2.2c-0.5,0.6-1.2,0.9-2.1,0.9c-0.4,0-0.8-0.1-1.1-0.3c-0.3-0.2-0.6-0.4-0.8-0.7h0
				v3.7h-1.4V18.9z M77.1,23.1c0.3-0.4,0.4-0.8,0.4-1.3s-0.1-0.9-0.4-1.3c-0.3-0.4-0.7-0.6-1.2-0.6c-0.5,0-0.9,0.2-1.2,0.6
				s-0.5,0.8-0.5,1.3s0.2,0.9,0.5,1.3c0.3,0.4,0.7,0.6,1.2,0.6C76.4,23.6,76.8,23.5,77.1,23.1z"/>
			<path class="st0" d="M81.4,24.7v-4.6h-1.9v-1.2h5.1v1.2h-1.8v4.6H81.4z"/>
			<path class="st0" d="M85.8,24.7v-5.8h1.4v3.7h0l2.5-3.7h1.6v5.8h-1.4V21h0l-2.5,3.7H85.8z"/>
			<path class="st0" d="M97.6,27.6h-1.4v-2.7c-1,0-1.9-0.3-2.5-0.9s-0.9-1.3-0.9-2.2c0-0.9,0.3-1.7,0.9-2.2c0.6-0.5,1.4-0.8,2.5-0.8
				v-3.2h1.4v3.2c1.1,0,1.9,0.3,2.5,0.8c0.6,0.5,0.9,1.3,0.9,2.2c0,0.9-0.3,1.6-0.9,2.2c-0.6,0.6-1.4,0.8-2.5,0.9V27.6z M96.2,23.7
				V20c-0.6,0-1.1,0.2-1.4,0.5c-0.3,0.3-0.5,0.8-0.5,1.3c0,0.6,0.2,1,0.5,1.4C95.1,23.5,95.5,23.7,96.2,23.7z M97.6,23.7
				c0.6,0,1.1-0.2,1.4-0.5c0.3-0.3,0.5-0.8,0.5-1.4c0-0.6-0.2-1-0.5-1.3c-0.3-0.3-0.8-0.5-1.4-0.5V23.7z"/>
			<path class="st0" d="M102.4,24.7v-5.8h1.4v3.7h0l2.5-3.7h1.6v5.8h-1.4V21h0l-2.5,3.7H102.4z"/>
			<path class="st0" d="M109.6,24.7v-5.8h1.4v2.6h0l2.2-2.6h1.8l-2.5,2.7l2.7,3.1h-1.8l-2.4-2.7h0v2.7H109.6z"/>
			<path class="st0" d="M119.7,24.7v-0.7h0c-0.1,0.3-0.4,0.5-0.7,0.6s-0.7,0.2-1.1,0.2c-0.6,0-1.1-0.1-1.5-0.4s-0.7-0.7-0.7-1.4
				c0-0.3,0.1-0.6,0.2-0.9c0.2-0.2,0.4-0.4,0.6-0.6s0.6-0.2,0.9-0.3c0.4-0.1,0.7-0.1,1.1-0.2s0.7,0,1.1,0v-0.1
				c0-0.3-0.1-0.6-0.4-0.8c-0.2-0.2-0.6-0.3-0.9-0.3c-0.6,0-1.1,0.2-1.6,0.7l-0.7-0.9c0.7-0.6,1.5-0.9,2.4-0.9
				c0.5,0,0.9,0.1,1.3,0.2c0.3,0.1,0.6,0.3,0.8,0.6c0.2,0.2,0.3,0.5,0.4,0.8c0.1,0.3,0.1,0.6,0.1,0.9v3.5H119.7z M119.7,22.2V22
				h-0.3c-1.5,0-2.2,0.3-2.2,1c0,0.3,0.1,0.4,0.3,0.6s0.4,0.2,0.7,0.2c0.5,0,0.9-0.1,1.1-0.4C119.6,23.1,119.7,22.7,119.7,22.2z"/>
			<path class="st0" d="M127.7,26.3v-1.6h-4.9v-5.8h1.4v4.6h2.4v-4.6h1.4v4.6h0.8v2.8H127.7z"/>
			<path class="st0" d="M130,24.7v-5.8h1.4v3.7h0l2.5-3.7h1.6v5.8h-1.4V21h0l-2.5,3.7H130z"/>
			<path class="st0" d="M137,21.8c0-0.9,0.3-1.6,0.9-2.2c0.6-0.6,1.3-0.8,2.2-0.8s1.6,0.3,2.2,0.8c0.6,0.6,0.9,1.3,0.9,2.2
				c0,0.9-0.3,1.6-0.9,2.2c-0.6,0.6-1.3,0.9-2.2,0.9s-1.6-0.3-2.2-0.9C137.3,23.4,137,22.7,137,21.8z M138.9,20.5
				c-0.3,0.4-0.4,0.8-0.4,1.3s0.1,0.9,0.4,1.3c0.3,0.4,0.7,0.6,1.2,0.6c0.5,0,0.9-0.2,1.2-0.6c0.3-0.4,0.4-0.8,0.4-1.3
				s-0.1-0.9-0.4-1.3s-0.7-0.6-1.2-0.6C139.6,19.9,139.2,20.1,138.9,20.5z"/>
			<path class="st0" d="M144.6,24.7v-5.8h1.4v2.2h2.4v-2.2h1.4v5.8h-1.4v-2.4h-2.4v2.4H144.6z"/>
			<path class="st0" d="M151.7,24.7v-5.8h1.4v2.2h2.4v-2.2h1.4v5.8h-1.4v-2.4h-2.4v2.4H151.7z"/>
			<path class="st0" d="M158.7,24.7v-5.8h1.4v2h1.2c0.7,0,1.3,0.2,1.7,0.5c0.4,0.3,0.6,0.8,0.6,1.4c0,0.6-0.2,1.1-0.6,1.4
				c-0.4,0.3-1,0.5-1.7,0.5H158.7z M160.2,23.6h0.9c0.4,0,0.8-0.1,1-0.2s0.3-0.3,0.3-0.6c0-0.3-0.1-0.5-0.3-0.6
				c-0.2-0.1-0.5-0.2-1-0.2h-0.9V23.6z M164.8,24.7v-5.8h1.4v5.8H164.8z"/>
			<path class="st0" d="M167.9,24.7v-5.8h1.4v3.7h0l2.5-3.7h1.6v5.8H172V21h0l-2.5,3.7H167.9z M170.7,17.9c-0.5,0-1-0.2-1.3-0.5
				c-0.3-0.3-0.5-0.7-0.6-1.2l0.8-0.1c0,0.3,0.2,0.5,0.4,0.6c0.2,0.1,0.4,0.2,0.7,0.2c0.3,0,0.5-0.1,0.7-0.2
				c0.2-0.1,0.3-0.4,0.4-0.6l0.8,0.2c-0.1,0.5-0.3,0.9-0.6,1.2C171.7,17.8,171.2,17.9,170.7,17.9z"/>
			<path class="st0" d="M183.2,26.3v-1.6h-4.9v-5.8h1.4v4.6h2.4v-4.6h1.4v4.6h0.8v2.8H183.2z"/>
			<path class="st0" d="M191,21.9c0,0.2,0,0.3,0,0.4h-4.4c0,0.4,0.2,0.7,0.5,1s0.7,0.4,1.1,0.4c0.7,0,1.2-0.2,1.5-0.7l1,0.8
				c-0.6,0.8-1.4,1.2-2.5,1.2c-0.9,0-1.6-0.3-2.2-0.8s-0.9-1.3-0.9-2.2s0.3-1.7,0.9-2.2s1.3-0.9,2.2-0.9c0.8,0,1.5,0.3,2,0.8
				C190.7,20.1,191,20.9,191,21.9z M186.6,21.2h3c0-0.4-0.1-0.7-0.3-1s-0.6-0.4-1-0.4c-0.4,0-0.8,0.1-1.1,0.4S186.6,20.8,186.6,21.2
				z"/>
			<path class="st0" d="M192.4,24.7v-5.8h1.4v2.2h2.4v-2.2h1.4v5.8h-1.4v-2.4h-2.4v2.4H192.4z"/>
			<path class="st0" d="M200.6,24.7v-4.6h-1.9v-1.2h5.1v1.2h-1.8v4.6H200.6z"/>
			<path class="st0" d="M205,18.9h1.4v0.8h0c0.2-0.3,0.4-0.5,0.8-0.7c0.3-0.2,0.8-0.3,1.2-0.3c0.8,0,1.5,0.3,2,0.9s0.8,1.3,0.8,2.2
				c0,0.9-0.3,1.6-0.8,2.2s-1.2,0.9-2.1,0.9c-0.4,0-0.8-0.1-1.1-0.3c-0.3-0.2-0.6-0.4-0.8-0.7h0v3.7H205V18.9z M209.3,23.1
				c0.3-0.4,0.4-0.8,0.4-1.3s-0.1-0.9-0.4-1.3c-0.3-0.4-0.7-0.6-1.2-0.6c-0.5,0-0.9,0.2-1.2,0.6c-0.3,0.4-0.5,0.8-0.5,1.3
				s0.2,0.9,0.5,1.3c0.3,0.4,0.7,0.6,1.2,0.6C208.6,23.6,209,23.5,209.3,23.1z"/>
		</g>
		<g>
			<path class="st0" d="M60.1,38.5v-7.1h2c0.7,0,1.3,0.2,1.8,0.5c0.4,0.3,0.6,0.8,0.6,1.4c0,0.6-0.2,1.1-0.7,1.4
				c-0.4,0.3-1,0.5-1.8,0.5h-1.3v3.3H60.1z M60.8,34.6H62c0.6,0,1-0.1,1.3-0.3c0.3-0.2,0.4-0.5,0.4-1c0-0.8-0.6-1.3-1.7-1.3h-1.2
				V34.6z"/>
			<path class="st0" d="M67.2,38.7c-0.7,0-1.3-0.2-1.7-0.7c-0.5-0.5-0.7-1.1-0.7-1.8c0-0.7,0.2-1.3,0.7-1.8c0.5-0.5,1-0.7,1.7-0.7
				c0.7,0,1.3,0.2,1.7,0.7c0.4,0.4,0.6,1,0.6,1.7c0,0.1,0,0.2,0,0.3h-3.9c0,0.5,0.2,0.9,0.5,1.2c0.3,0.3,0.7,0.5,1.2,0.5
				c0.3,0,0.6-0.1,0.9-0.2c0.3-0.2,0.5-0.3,0.6-0.6l0.5,0.4C68.7,38.3,68,38.7,67.2,38.7z M65.5,35.8h3.2c0-0.5-0.2-0.8-0.4-1.1
				c-0.3-0.3-0.6-0.4-1.1-0.4c-0.4,0-0.8,0.2-1.1,0.5C65.7,35.1,65.5,35.4,65.5,35.8z"/>
			<path class="st0" d="M73,38.7c-0.7,0-1.4-0.2-1.8-0.7s-0.7-1.1-0.7-1.8s0.2-1.3,0.7-1.8s1.1-0.7,1.8-0.7c0.3,0,0.7,0.1,1,0.2
				c0.3,0.1,0.6,0.3,0.8,0.6l-0.5,0.4c-0.1-0.2-0.3-0.3-0.5-0.4c-0.2-0.1-0.5-0.2-0.7-0.2c-0.5,0-1,0.2-1.3,0.5
				c-0.3,0.4-0.5,0.8-0.5,1.4c0,0.5,0.2,1,0.5,1.3c0.3,0.4,0.8,0.5,1.3,0.5c0.5,0,1-0.2,1.3-0.6l0.5,0.4
				C74.4,38.4,73.8,38.7,73,38.7z"/>
			<path class="st0" d="M75.9,38.5v-4.7h4v4.7h-0.7v-4.1h-2.6v4.1H75.9z"/>
			<path class="st0" d="M81.7,40.9c-0.2,0-0.4,0-0.6-0.1l0.1-0.6c0.2,0.1,0.3,0.1,0.5,0.1c0.2,0,0.4-0.1,0.5-0.2s0.3-0.3,0.4-0.6
				l0.4-1l-2-4.7h0.8l1.6,4h0l1.5-4h0.7l-2.3,5.9c-0.2,0.4-0.3,0.7-0.6,0.9S82,40.9,81.7,40.9z"/>
			<path class="st0" d="M88.9,38.7c-0.9,0-1.6-0.3-2-1c-0.3-0.4-0.4-1.2-0.4-2.2c0-0.6,0-1.1,0.1-1.6c0.1-0.4,0.1-0.8,0.3-1.2
				c0.1-0.4,0.4-0.7,0.7-0.9c0.3-0.2,0.7-0.3,1.1-0.4l1.4-0.2c0.2,0,0.4-0.1,0.6-0.1c0.1-0.1,0.2-0.2,0.3-0.3l0.5,0.1
				c-0.1,0.3-0.2,0.5-0.4,0.6c-0.2,0.1-0.4,0.2-0.8,0.3L88.8,32c-0.7,0.1-1.2,0.3-1.5,0.7S87,33.9,87,34.9h0
				c0.4-0.8,1.1-1.2,2.1-1.2c0.7,0,1.2,0.2,1.7,0.7s0.7,1.1,0.7,1.8c0,0.7-0.2,1.3-0.7,1.8C90.2,38.4,89.6,38.7,88.9,38.7z
				 M88.9,38.1c0.5,0,1-0.2,1.3-0.5c0.3-0.4,0.5-0.8,0.5-1.3c0-0.5-0.2-1-0.5-1.4c-0.3-0.4-0.8-0.5-1.3-0.5c-0.5,0-1,0.2-1.3,0.5
				s-0.5,0.8-0.5,1.4c0,0.5,0.2,1,0.5,1.3S88.4,38.1,88.9,38.1z"/>
			<path class="st0" d="M92.4,38.6c-0.2,0-0.4,0-0.5-0.1l0.1-0.6c0.1,0,0.2,0,0.3,0c0.4,0,0.6-0.2,0.8-0.6s0.3-1,0.3-2v-1.6h3.4v4.7
				h-0.7v-4.1h-2v1.3c0,0.9-0.1,1.7-0.4,2.2C93.4,38.3,93,38.6,92.4,38.6z"/>
			<path class="st0" d="M98.6,38.5v-4.7h0.7v3.7h0l2.8-3.7h0.7v4.7h-0.7v-3.8h0l-2.8,3.8H98.6z"/>
			<path class="st0" d="M104.6,38.5v-4.7h0.7v2.2h0l2.2-2.2h1l-2.4,2.2l2.6,2.4h-1l-2.4-2.4h0v2.4H104.6z"/>
			<path class="st0" d="M109.7,38.5v-4.7h0.7v3.7h0l2.8-3.7h0.7v4.7h-0.7v-3.8h0l-2.8,3.8H109.7z"/>
			<path class="st0" d="M118.2,38.5v-7.1h4.2v0.6h-3.5v2.4h1.4c0.8,0,1.4,0.2,1.9,0.5s0.7,0.8,0.7,1.5c0,0.7-0.2,1.2-0.7,1.5
				c-0.5,0.3-1.1,0.5-1.9,0.5H118.2z M118.9,37.9h1.4c1.3,0,1.9-0.5,1.9-1.4c0-0.5-0.2-0.8-0.5-1c-0.3-0.2-0.8-0.4-1.4-0.4h-1.4
				V37.9z"/>
			<path class="st0" d="M125.8,38.7c-0.4,0-0.8-0.1-1.1-0.4c-0.3-0.2-0.5-0.6-0.5-1.1c0-0.2,0-0.4,0.1-0.6s0.2-0.3,0.4-0.4
				s0.3-0.2,0.5-0.3s0.4-0.1,0.7-0.2c0.3,0,0.5-0.1,0.8-0.1c0.2,0,0.5,0,0.8,0v-0.2c0-0.8-0.4-1.2-1.3-1.2c-0.6,0-1,0.2-1.4,0.6
				l-0.4-0.5c0.4-0.4,1.1-0.7,1.8-0.7c0.5,0,1,0.1,1.3,0.4c0.3,0.3,0.5,0.7,0.5,1.3v2.1c0,0.4,0,0.8,0.1,1.1h-0.6
				c0-0.3-0.1-0.5-0.1-0.8h0C127,38.4,126.5,38.7,125.8,38.7z M125.9,38.1c0.5,0,0.8-0.2,1.1-0.5c0.3-0.3,0.4-0.7,0.4-1.1v-0.4h-0.2
				c-0.3,0-0.6,0-0.9,0c-0.3,0-0.5,0.1-0.8,0.1c-0.3,0.1-0.4,0.2-0.6,0.3c-0.1,0.1-0.2,0.3-0.2,0.5c0,0.3,0.1,0.5,0.3,0.7
				C125.4,38,125.6,38.1,125.9,38.1z"/>
			<path class="st0" d="M129.8,38.5v-4.7h0.7V38h2.3v-4.1h0.7V38h2.3v-4.1h0.7v4.7H129.8z"/>
			<path class="st0" d="M138.2,38.5v-4.7h0.7v2.2h0l2.2-2.2h1l-2.4,2.2l2.6,2.4h-1l-2.4-2.4h0v2.4H138.2z"/>
			<path class="st0" d="M145.3,38.7c-0.7,0-1.3-0.2-1.8-0.7c-0.5-0.5-0.7-1.1-0.7-1.8s0.2-1.3,0.7-1.8c0.5-0.5,1.1-0.7,1.8-0.7
				c0.7,0,1.3,0.2,1.8,0.7c0.5,0.5,0.7,1.1,0.7,1.8s-0.2,1.3-0.7,1.8C146.6,38.4,146,38.7,145.3,38.7z M145.3,38.1
				c0.5,0,1-0.2,1.3-0.5c0.3-0.4,0.5-0.8,0.5-1.3c0-0.5-0.2-1-0.5-1.4s-0.8-0.5-1.3-0.5c-0.5,0-1,0.2-1.3,0.5
				c-0.3,0.4-0.5,0.8-0.5,1.4c0,0.5,0.2,1,0.5,1.3C144.3,37.9,144.8,38.1,145.3,38.1z"/>
			<path class="st0" d="M149.3,40.9v-7.1h0.7v0.8h0c0.2-0.3,0.4-0.5,0.8-0.7c0.3-0.2,0.7-0.2,1-0.2c0.7,0,1.3,0.2,1.8,0.7
				s0.7,1.1,0.7,1.8s-0.2,1.3-0.7,1.8s-1,0.7-1.8,0.7c-0.3,0-0.7-0.1-1-0.2s-0.6-0.4-0.8-0.7h0v3.2H149.3z M151.7,38.1
				c0.5,0,1-0.2,1.3-0.5c0.3-0.4,0.5-0.8,0.5-1.3c0-0.5-0.2-1-0.5-1.4c-0.3-0.4-0.8-0.5-1.3-0.5c-0.5,0-1,0.2-1.3,0.5
				c-0.3,0.4-0.5,0.8-0.5,1.4c0,0.5,0.2,1,0.5,1.3C150.7,37.9,151.1,38.1,151.7,38.1z"/>
			<path class="st0" d="M156.5,38.5v-4.1h-1.7v-0.6h4.1v0.6h-1.7v4.1H156.5z"/>
			<path class="st0" d="M162,38.7c-0.7,0-1.3-0.2-1.8-0.7c-0.5-0.5-0.7-1.1-0.7-1.8s0.2-1.3,0.7-1.8c0.5-0.5,1.1-0.7,1.8-0.7
				c0.7,0,1.3,0.2,1.8,0.7c0.5,0.5,0.7,1.1,0.7,1.8s-0.2,1.3-0.7,1.8C163.3,38.4,162.7,38.7,162,38.7z M162,38.1
				c0.5,0,1-0.2,1.3-0.5c0.3-0.4,0.5-0.8,0.5-1.3c0-0.5-0.2-1-0.5-1.4s-0.8-0.5-1.3-0.5c-0.5,0-1,0.2-1.3,0.5
				c-0.3,0.4-0.5,0.8-0.5,1.4c0,0.5,0.2,1,0.5,1.3C161,37.9,161.5,38.1,162,38.1z"/>
			<path class="st0" d="M168.1,38.7c-0.7,0-1.4-0.2-1.8-0.7c-0.5-0.5-0.7-1.1-0.7-1.8s0.2-1.3,0.7-1.8c0.5-0.5,1.1-0.7,1.8-0.7
				c0.3,0,0.7,0.1,1,0.2c0.3,0.1,0.6,0.3,0.8,0.6l-0.5,0.4c-0.1-0.2-0.3-0.3-0.5-0.4c-0.2-0.1-0.5-0.2-0.7-0.2c-0.5,0-1,0.2-1.3,0.5
				c-0.3,0.4-0.5,0.8-0.5,1.4c0,0.5,0.2,1,0.5,1.3c0.3,0.4,0.8,0.5,1.3,0.5c0.5,0,1-0.2,1.3-0.6l0.5,0.4
				C169.5,38.4,168.9,38.7,168.1,38.7z"/>
			<path class="st0" d="M172.1,38.5v-4.1h-1.7v-0.6h4.1v0.6h-1.7v4.1H172.1z"/>
			<path class="st0" d="M176.9,38.7c-0.4,0-0.8-0.1-1.1-0.4c-0.3-0.2-0.5-0.6-0.5-1.1c0-0.2,0-0.4,0.1-0.6s0.2-0.3,0.4-0.4
				s0.3-0.2,0.5-0.3s0.4-0.1,0.7-0.2c0.3,0,0.5-0.1,0.8-0.1c0.2,0,0.5,0,0.8,0v-0.2c0-0.8-0.4-1.2-1.3-1.2c-0.6,0-1,0.2-1.4,0.6
				l-0.4-0.5c0.4-0.4,1.1-0.7,1.8-0.7c0.5,0,1,0.1,1.3,0.4c0.3,0.3,0.5,0.7,0.5,1.3v2.1c0,0.4,0,0.8,0.1,1.1h-0.6
				c0-0.3-0.1-0.5-0.1-0.8h0C178.2,38.4,177.6,38.7,176.9,38.7z M177.1,38.1c0.5,0,0.8-0.2,1.1-0.5c0.3-0.3,0.4-0.7,0.4-1.1v-0.4
				h-0.2c-0.3,0-0.6,0-0.9,0c-0.3,0-0.5,0.1-0.8,0.1c-0.3,0.1-0.4,0.2-0.6,0.3c-0.1,0.1-0.2,0.3-0.2,0.5c0,0.3,0.1,0.5,0.3,0.7
				C176.5,38,176.8,38.1,177.1,38.1z"/>
			<path class="st0" d="M181,38.5v-4.7h0.7v2h2.7v-2h0.7v4.7h-0.7v-2.2h-2.7v2.2H181z"/>
		</g>
	</g>
</g>
</svg>
