<?xml version="1.0" encoding="utf-8"?>
<!-- Generator: Adobe Illustrator 22.0.1, SVG Export Plug-In . SVG Version: 6.00 Build 0)  -->
<svg version="1.1" id="_1" xmlns="http://www.w3.org/2000/svg" xmlns:xlink="http://www.w3.org/1999/xlink" x="0px" y="0px"
	 viewBox="0 0 80.1 81.6" style="enable-background:new 0 0 80.1 81.6;" xml:space="preserve">
<style type="text/css">
	.st0{fill:#FFFFFF;}
	.st1{fill:#FFC92F;}
</style>
<title>logo_sasp</title>
<g>
	<g>
		<g>
			<path class="st0" d="M8.7,22.6c-0.3,0.6-0.8,1-1.4,1.1c-0.6,0.2-1.2,0-1.8-0.3c-0.6-0.3-1-0.8-1.1-1.4c-0.2-0.9,0.2-1.9,0.9-2.5
				c0.2-0.2,0.5-0.3,0.8-0.3l0.1,0.6c-0.2,0-0.4,0.1-0.6,0.2c-0.6,0.4-0.8,1.1-0.6,1.8c0.1,0.4,0.5,0.8,0.9,1
				c0.4,0.3,0.9,0.4,1.4,0.3c0.4-0.1,0.8-0.4,1-0.8c0.3-0.4,0.3-0.9,0.1-1.3l0.5-0.3C9.2,21.3,9.1,22,8.7,22.6z"/>
			<path class="st0" d="M6.8,24c-0.5,0-0.9-0.1-1.3-0.4c-0.6-0.3-1-0.9-1.2-1.6c-0.2-1,0.2-2.1,1-2.7c0.3-0.2,0.6-0.3,0.9-0.4l0.2,0
				L6.5,20l-0.3,0c-0.2,0-0.3,0.1-0.5,0.2c-0.5,0.3-0.7,0.9-0.5,1.5c0.1,0.4,0.4,0.7,0.7,0.8c0.4,0.2,0.8,0.3,1.2,0.3
				c0.4-0.1,0.7-0.3,0.8-0.7c0.2-0.3,0.3-0.8,0.1-1.1L8,20.8l1-0.5l0.1,0.2c0.3,0.7,0.2,1.5-0.2,2.1c-0.3,0.6-0.9,1.1-1.6,1.2
				C7.2,24,7,24,6.8,24z M5.9,19.5c-0.1,0-0.3,0.1-0.4,0.2c-0.7,0.5-1,1.4-0.8,2.2c0.1,0.5,0.5,1,1,1.2c0.5,0.3,1.1,0.4,1.6,0.3
				c0.5-0.1,1-0.5,1.3-1l0,0C8.8,22,8.9,21.5,8.7,21l-0.1,0c0.1,0.4,0.1,0.9-0.2,1.3c-0.2,0.4-0.6,0.8-1.1,0.9
				c-0.6,0.1-1.1,0-1.6-0.3c-0.4-0.2-0.8-0.6-1-1.1c-0.2-0.8,0.1-1.6,0.7-2.1c0.1-0.1,0.3-0.2,0.4-0.2L5.9,19.5z"/>
		</g>
		<g>
			<path class="st0" d="M10,20.3l-3.5-2.7l0.4-0.5l2.8,2.2l0,0l-1.4-3.9l0.4-0.5l3.5,2.7L11.8,18L9,15.8l0,0l1.4,3.9L10,20.3z"/>
			<path class="st0" d="M10.1,20.6l-3.9-3l0.7-0.9l2.3,1.8L8,15.3l0.6-0.8l3.9,3l-0.7,0.9l-2.3-1.8l1.2,3.2L10.1,20.6z M6.9,17.5
				l3.1,2.4l0-0.1L6.9,17.5L6.9,17.5z M8.5,15.4l1.6,4.4l0.1-0.1L8.5,15.4L8.5,15.4z M8.7,15.2l3.1,2.4l0.1-0.1L8.7,15.2L8.7,15.2z"
				/>
		</g>
		<g>
			<path class="st0" d="M14.7,15.1c-0.4,0.5-1,0.7-1.6,0.7c-1.3,0-2.3-1.1-2.3-2.4c0.1-0.9,0.6-1.8,1.5-2.1c0.3-0.1,0.5-0.2,0.8-0.1
				L13,11.7c-0.2,0-0.4,0-0.6,0.1c-0.2,0.1-0.4,0.2-0.6,0.4c-0.3,0.3-0.5,0.8-0.5,1.2c0.1,0.9,0.8,1.7,1.8,1.8
				c0.4,0,0.9-0.2,1.2-0.5c0.3-0.3,0.5-0.8,0.4-1.3l0.6-0.1C15.4,14,15.2,14.6,14.7,15.1z"/>
			<path class="st0" d="M13,16C13,16,13,16,13,16c-1.5-0.1-2.6-1.2-2.6-2.6c0.1-1.1,0.7-2,1.7-2.4c0.3-0.1,0.6-0.2,1-0.1l0.2,0
				L13.2,12l-0.3,0c-0.2,0-0.3,0-0.5,0c-0.2,0.1-0.3,0.2-0.5,0.3c-0.3,0.3-0.4,0.6-0.4,1c0.1,0.8,0.7,1.5,1.5,1.6
				c0.4,0,0.7-0.1,1-0.4c0.3-0.3,0.4-0.7,0.4-1l0-0.2l1.1-0.2l0,0.3c0.1,0.7-0.1,1.5-0.7,2C14.4,15.7,13.7,16,13,16z M12.8,11.4
				c-0.2,0-0.3,0-0.4,0.1c-0.8,0.3-1.3,1.1-1.4,1.9c0,1.1,0.9,2.1,2.1,2.1c0,0,0,0,0,0c0.5,0,1.1-0.2,1.4-0.6l0,0
				c0.4-0.3,0.6-0.8,0.6-1.3l-0.1,0c0,0.5-0.2,0.9-0.5,1.2c-0.3,0.4-0.8,0.6-1.4,0.5c-1.1-0.1-1.9-1-2-2c0-0.5,0.2-1.1,0.6-1.4
				c0.2-0.2,0.4-0.3,0.6-0.4c0.1-0.1,0.3-0.1,0.5-0.1L12.8,11.4z"/>
		</g>
		<g>
			<path class="st0" d="M17.3,12.7l-2.4-3l-1.1,0.9L13.4,10l2.7-2.1l0.3,0.4l-1.1,0.9l2.4,3L17.3,12.7z"/>
			<path class="st0" d="M17.2,13L14.9,10l-1.1,0.9L13.1,10l3.1-2.4l0.6,0.8l-1.1,0.9l2.4,3L17.2,13z M14.9,9.3l2.4,3l0.1-0.1
				L14.9,9.3l1.2-0.9l0,0l-2.3,1.8l0,0L14.9,9.3z"/>
		</g>
		<g>
			<path class="st0" d="M19.6,10.9l-2.3-3.7l2.4-1.5L20,6.1l-1.9,1.1l0.7,1.1l1.8-1.1l0.3,0.4l-1.8,1.1l0.8,1.3l2-1.2l0.3,0.5
				L19.6,10.9z"/>
			<path class="st0" d="M19.6,11.2L17,7.1l2.8-1.8l0.6,0.9l-1.9,1.1L18.9,8l1.8-1.1l0.5,0.9l-1.8,1.1l0.5,0.8l2-1.2l0.6,0.9
				L19.6,11.2z M17.7,7.2l2.1,3.3l2.1-1.3l0,0l-2,1.2l-1-1.7l1.8-1.1l0,0l-1.8,1.1l-1-1.6L19.7,6l0,0L17.7,7.2z"/>
		</g>
		<g>
			<path class="st0" d="M23.1,8.8l-1.8-4l0.9-0.4l2.6,2.6l0,0l-0.2-3.6l0.9-0.4l1.8,4l-0.6,0.3l-1.5-3.4l0,0l0.2,4L25,8l-2.8-2.8
				l0,0l1.5,3.4L23.1,8.8z"/>
			<path class="st0" d="M23,9.1l-2-4.5l0.6-0.3l-0.1-0.3l0.3,0.3l0.6-0.2l2.3,2.2l-0.2-3.2l0.6-0.3l0-0.4L25,2.8l0.6-0.2l2,4.5
				l-1,0.5l-1.1-2.4L25.6,8l-0.7,0.3l-2-2L24,8.7L23,9.1z M21.6,4.9l1.6,3.6l0.1,0l-1.6-3.6L21.6,4.9z M22,4.7l3,3l0,0l-0.2-4.2
				l-0.1,0L25,7.6L22,4.7L22,4.7z M25.2,3.3l1.6,3.5l0.1,0L25.2,3.3L25.2,3.3z"/>
		</g>
		<g>
			<path class="st0" d="M28.1,6.7l0.6-4.8l0.6-0.1l3,3.7l-0.7,0.2l-0.7-0.9l-2,0.6l-0.1,1.2L28.1,6.7z M28.9,4.7l1.6-0.5l-1.4-1.7
				L28.9,4.7z"/>
			<path class="st0" d="M27.8,7l0.7-5.3l0.9-0.2l3.3,4.2L31.5,6L30.8,5l-1.7,0.5L29,6.7L27.8,7z M28.9,2.1l-0.6,4.2l0.1,0l0.1-1.2
				L31,4.5l0.7,0.9l0.1,0L29.2,2l-0.1,0l1.8,2.3l-2.3,0.7L28.9,2.1L28.9,2.1z M29.3,3.2l-0.1,1.2l0.9-0.3L29.3,3.2z"/>
		</g>
		<g>
			<path class="st0" d="M34.6,5.1l1.5-4.6h0.6l2.3,4.2l-0.6,0l-0.5-1l-2.1,0.2L35.3,5L34.6,5.1z M35.7,3.3l1.7-0.2l-1-2L35.7,3.3z"
				/>
			<path class="st0" d="M34.2,5.3l1.7-5.1h0.9l2.6,4.7l-1.2,0l-0.5-1l-1.8,0.2l-0.4,1.1L34.2,5.3z M36.2,0.7l-1.3,4l0.2,0l0.4-1.1
				l2.4-0.2l0.6,1l0.1,0l-2-3.7l1.3,2.6l-2.4,0.2L36.2,0.7L36.2,0.7z M36.5,1.8L36.1,3L37,2.9L36.5,1.8z"/>
		</g>
		<g>
			<path class="st0" d="M40.4,4.7l0.1-3.9H39V0.3l3.5,0.1v0.5h-1.4L41,4.7L40.4,4.7z"/>
			<path class="st0" d="M41.2,5l-1.1-0.1l0.1-3.9h-1.4V0l4,0.1v1h-1.4L41.2,5z M40.6,4.4l0.1,0l0.1-3.9h1.4v0l-3,0v0.1h1.4L40.6,4.4
				z"/>
		</g>
		<g>
			<path class="st0" d="M44.3,4.9l0.5-3.8l-1.4-0.2l0.1-0.5l3.4,0.4l-0.1,0.5l-1.4-0.2L44.9,5L44.3,4.9z"/>
			<path class="st0" d="M45.1,5.3L44,5.1l0.5-3.8l-1.4-0.2l0.1-1l3.9,0.5l-0.1,1l-1.4-0.2L45.1,5.3z M44.5,4.7l0.1,0l0.5-3.9
				l1.4,0.2l0,0l-2.9-0.4l0,0l1.4,0.2L44.5,4.7z"/>
		</g>
		<g>
			<path class="st0" d="M47.2,5.4l1.1-4.3L51,1.7l-0.2,0.5l-2.2-0.5L48.4,3l2,0.5L50.3,4l-2-0.5L47.9,5l2.2,0.5L50.1,6L47.2,5.4z"/>
			<path class="st0" d="M50.2,6.3l-3.3-0.8l1.2-4.8l3.3,0.8l-0.3,1l-2.1-0.5l-0.2,0.8l2,0.5l-0.3,1l-2-0.5l-0.2,0.9l2.2,0.5
				L50.2,6.3z M47.5,5.2l2.4,0.6l0,0l-2.2-0.5l0.4-1.9l2,0.5l0,0l-2-0.5l0.4-1.8L50.7,2l0-0.1l-2.3-0.5L47.5,5.2z"/>
		</g>
		<g>
			<path class="st0" d="M53.1,7.2C52.5,7,52,6.6,51.7,6c-0.3-0.6-0.3-1.2,0-1.8c0.2-0.6,0.6-1.1,1.2-1.3c0.6-0.2,1.2-0.2,1.8,0
				C55,3,55.3,3.1,55.5,3.3C55.7,3.5,55.9,3.8,56,4l-0.6,0.2c-0.1-0.2-0.2-0.4-0.3-0.5c-0.2-0.2-0.3-0.3-0.5-0.3
				c-0.4-0.2-0.9-0.2-1.3,0.1c-0.4,0.2-0.7,0.6-0.9,1c-0.2,0.4-0.2,0.9,0,1.3c0.2,0.4,0.5,0.8,1,0.9c0.4,0.2,0.9,0.1,1.3-0.1L55,7
				C54.4,7.4,53.7,7.5,53.1,7.2z"/>
			<path class="st0" d="M53.9,7.6c-0.3,0-0.6-0.1-0.9-0.2c-0.7-0.2-1.2-0.7-1.5-1.3c-0.3-0.6-0.3-1.4,0-2c0.2-0.6,0.7-1.2,1.3-1.5
				c0.6-0.3,1.4-0.3,2,0c0.3,0.1,0.6,0.3,0.9,0.5c0.2,0.2,0.4,0.5,0.5,0.8l0.1,0.2l-1.1,0.4l-0.1-0.2c0-0.2-0.1-0.3-0.2-0.4
				c-0.1-0.1-0.3-0.2-0.5-0.3c-0.4-0.1-0.8-0.1-1.1,0c-0.4,0.2-0.6,0.5-0.7,0.9c-0.2,0.4-0.2,0.8,0,1.2c0.1,0.4,0.5,0.6,0.8,0.7
				c0.4,0.2,0.8,0.1,1.1-0.1l0.2-0.1l0.6,0.9l-0.2,0.1C54.8,7.5,54.3,7.6,53.9,7.6z M53.8,2.9c-0.3,0-0.5,0.1-0.8,0.2
				c-0.5,0.2-0.9,0.7-1.1,1.2c-0.2,0.5-0.2,1.1,0,1.6c0.2,0.5,0.7,0.9,1.2,1.1l0,0c0.5,0.2,1,0.2,1.4,0l-0.1-0.1
				c-0.4,0.2-0.9,0.2-1.3,0c-0.5-0.1-0.9-0.5-1.1-1c-0.2-0.5-0.2-1,0-1.5c0.2-0.5,0.5-0.9,1-1.1c0.5-0.2,1-0.3,1.5-0.1
				c0.2,0.1,0.4,0.2,0.6,0.4c0.1,0.1,0.2,0.2,0.3,0.4l0.1,0c-0.1-0.1-0.2-0.3-0.3-0.4c-0.2-0.2-0.4-0.3-0.7-0.4
				C54.4,3,54.1,2.9,53.8,2.9z"/>
		</g>
		<g>
			<path class="st0" d="M56.4,8.5L58.1,5l-1.3-0.6L57,3.9l3.1,1.5l-0.2,0.5l-1.3-0.7l-1.7,3.5L56.4,8.5z"/>
			<path class="st0" d="M57,9.1l-1-0.4l1.7-3.5l-1.3-0.6l0.5-0.9l3.6,1.7L60,6.2l-1.3-0.6L57,9.1z M56.7,8.4L56.7,8.4l1.8-3.5
				l1.3,0.7l0,0l-2.6-1.3l0,0l1.3,0.6L56.7,8.4z"/>
		</g>
		<g>
			<path class="st0" d="M58.3,9.4l4-2.7L62.7,7l-0.8,4.7l-0.6-0.4l0.2-1.1l-1.8-1.1l-1,0.7L58.3,9.4z M60.3,8.8l1.4,0.9l0.4-2.2
				L60.3,8.8z"/>
			<path class="st0" d="M62.1,12.2l-1-0.7l0.2-1.1l-1.5-1l-1,0.7l-0.9-0.7l4.4-3L63,6.9L62.1,12.2z M61.6,11.3l0.1,0.1l0.7-4.2
				l-0.1,0l-0.6,3l-2-1.3L62.3,7l0,0l-3.6,2.4l0.1,0.1l1-0.7l2,1.3L61.6,11.3z M60.7,8.8l0.8,0.5L61.7,8L60.7,8.8z"/>
		</g>
		<g>
			<path class="st0" d="M64.5,15.3l0.7-0.8l-2.6-2.2L65.5,9l0.5,0.4l-2.5,2.9l1.7,1.4l2.5-2.9l0.5,0.4l-2.5,2.9l0.4,0.3l-1,1.2
				L64.5,15.3z"/>
			<path class="st0" d="M65,16l-0.9-0.7l0.7-0.8l-2.6-2.2l3.2-3.7l0.8,0.7l-2.5,2.9l1.3,1.1l2.5-2.9l0.9,0.7l-2.5,2.9l0.4,0.3L65,16
				z M64.8,15.3L64.8,15.3l0.8-0.8l-0.4-0.3l2.5-2.9l-0.1-0.1l-2.5,2.9l-2.1-1.8l2.5-2.9l-0.1-0.1l-2.5,3l2.6,2.2L64.8,15.3z"/>
		</g>
		<g>
			<path class="st0" d="M66.3,15.6l3.3-2.9l0.4,0.5l-2.6,2.3l0,0l4.1-0.7l0.4,0.5l-3.3,2.9l-0.4-0.5l2.6-2.3l0,0l-4.1,0.7L66.3,15.6
				z"/>
			<path class="st0" d="M68.6,18.6l-0.7-0.8l2.1-1.9l-3.4,0.6l-0.8-0.8l3.7-3.3l0.7,0.8l-2.2,1.9l3.4-0.6l0.7,0.8L68.6,18.6z
				 M68.6,17.8L68.6,17.8l2.9-2.5l0,0L68.6,17.8z M66.8,15.8L66.8,15.8l4.6-0.7l-0.1-0.1L66.8,15.8z M66.6,15.6L66.6,15.6l3-2.5
				L69.5,13L66.6,15.6z"/>
		</g>
		<g>
			<path class="st0" d="M69.5,19.4l3.7-2.5l0.3,0.5l-2.9,2l0,0l4.2-0.1l0.4,0.6l-3.7,2.4l-0.3-0.5l2.9-2l0,0l-4.1,0.1L69.5,19.4z"/>
			<path class="st0" d="M71.4,22.6l-0.6-0.9l2.4-1.7l-3.4,0.1l-0.6-0.8l4.1-2.8l0.6,0.9l-2.4,1.7l3.4-0.1l0.6,0.9L71.4,22.6z
				 M71.5,21.8l0.1,0.1l3.2-2.2l-0.1-0.2L71.5,21.8z M69.9,19.4l0.1,0.1l3.2-2.2l-0.1-0.1L69.9,19.4z"/>
		</g>
		<g>
			<path class="st0" d="M0.3,46c-0.1-0.6,0.1-1.2,0.5-1.7c0.4-0.5,1-0.8,1.6-0.8c0.6-0.1,1.2,0.1,1.7,0.5c0.7,0.6,1,1.6,0.7,2.5
				c-0.1,0.3-0.2,0.5-0.4,0.7L4,46.7c0.1-0.1,0.2-0.3,0.3-0.5c0.1-0.2,0.1-0.4,0.1-0.6c0-0.5-0.3-0.9-0.6-1.2
				c-0.4-0.3-0.8-0.4-1.3-0.3c-0.5,0-0.9,0.2-1.2,0.6C0.9,45,0.7,45.5,0.8,46c0,0.5,0.3,0.9,0.7,1.1l-0.3,0.5
				C0.7,47.2,0.3,46.6,0.3,46z"/>
			<path class="st0" d="M1.4,47.9l-0.2-0.1c-0.7-0.4-1.1-1-1.1-1.8c-0.1-0.7,0.1-1.4,0.6-1.9c0.4-0.5,1.1-0.9,1.8-0.9
				c0.7-0.1,1.4,0.1,1.9,0.5c0.8,0.7,1.1,1.8,0.8,2.8c-0.1,0.3-0.3,0.6-0.5,0.8l-0.2,0.2l-0.8-0.8l0.2-0.2C3.9,46.4,4,46.3,4,46.2
				c0.1-0.2,0.1-0.4,0.1-0.5c0-0.4-0.2-0.8-0.5-1c-0.3-0.2-0.7-0.3-1.1-0.3c-0.4,0-0.8,0.2-1.1,0.5c-0.2,0.3-0.4,0.7-0.3,1
				c0,0.4,0.2,0.7,0.6,0.9L1.9,47L1.4,47.9z M2.7,43.7c-0.1,0-0.2,0-0.3,0c-0.6,0-1.1,0.3-1.4,0.7c-0.3,0.4-0.5,1-0.4,1.5l0,0
				c0,0.5,0.3,0.9,0.7,1.2l0,0c-0.4-0.3-0.6-0.7-0.6-1.2c-0.1-0.5,0.1-1,0.4-1.4c0.4-0.4,0.9-0.6,1.4-0.7c0.5-0.1,1,0.1,1.5,0.4
				c0.4,0.3,0.7,0.8,0.7,1.3c0,0.2,0,0.5-0.1,0.7c0,0.1-0.1,0.3-0.2,0.4l0.1,0.1c0.1-0.1,0.2-0.3,0.2-0.4c0.2-0.8,0-1.7-0.7-2.3
				C3.6,43.8,3.1,43.7,2.7,43.7z"/>
		</g>
		<g>
			<path class="st0" d="M0.9,49.2l4.3-1l0.3,1.5c0.1,0.3,0.1,0.7,0,1c-0.1,0.3-0.4,0.5-0.7,0.6c-0.2,0.1-0.4,0-0.6-0.1
				c-0.2-0.1-0.4-0.3-0.5-0.5l0,0c0,0.3,0,0.5-0.2,0.8c-0.1,0.2-0.4,0.4-0.6,0.4c-0.4,0.1-0.7,0-1-0.2c-0.3-0.3-0.5-0.7-0.6-1.1
				L0.9,49.2z M1.5,49.7l0.2,0.8c0,0.2,0.1,0.3,0.2,0.5C2,51,2.1,51.2,2.2,51.2c0.1,0.1,0.3,0.1,0.5,0.1c0.5-0.1,0.6-0.5,0.5-1.2
				L3,49.3L1.5,49.7z M3.5,49.2L3.7,50c0,0.2,0.1,0.4,0.3,0.6c0.2,0.1,0.4,0.2,0.6,0.1C5,50.6,5.1,50.2,5,49.6l-0.2-0.7L3.5,49.2z"
				/>
			<path class="st0" d="M2.6,52.2c-0.3,0-0.6-0.1-0.9-0.3c-0.3-0.3-0.6-0.8-0.7-1.2L0.6,49l4.8-1.1l0.4,1.7c0.1,0.4,0.1,0.8,0,1.1
				c-0.2,0.4-0.5,0.7-0.9,0.8c-0.2,0.1-0.5,0-0.8-0.1c-0.1,0-0.1-0.1-0.2-0.1c0,0.1-0.1,0.2-0.1,0.3c-0.2,0.3-0.5,0.5-0.8,0.5
				C2.8,52.2,2.7,52.2,2.6,52.2z M1.8,51.2c0.1,0.1,0.1,0.2,0.2,0.3c0.2,0.2,0.5,0.3,0.8,0.2c0.2,0,0.4-0.2,0.5-0.3
				c0.1-0.1,0.1-0.3,0.1-0.4c0,0.1-0.1,0.1-0.1,0.2c-0.1,0.2-0.3,0.3-0.6,0.4c-0.2,0.1-0.5,0-0.7-0.1C2,51.4,1.9,51.3,1.8,51.2z
				 M1.8,49.8l0.1,0.5c0,0.1,0.1,0.3,0.2,0.4C2.2,50.9,2.2,51,2.3,51c0.1,0,0.2,0.1,0.3,0c0.1,0,0.2-0.1,0.3-0.2
				c0.1-0.1,0.1-0.4,0-0.7l-0.1-0.6L1.8,49.8z M4.1,50.9c0,0,0.1,0,0.1,0.1C4.4,51,4.6,51,4.7,51c0.3,0,0.5-0.2,0.6-0.4
				c0.1-0.3,0.1-0.5,0-0.8c0,0.3,0,0.6-0.1,0.8c-0.1,0.2-0.3,0.3-0.5,0.4C4.5,51,4.3,50.9,4.1,50.9z M3.8,49.4l0.1,0.5
				c0,0.2,0.1,0.3,0.2,0.4c0.1,0.1,0.2,0.1,0.3,0.1c0.2,0,0.2-0.1,0.2-0.1c0.1-0.1,0.1-0.4,0-0.6l-0.1-0.4L3.8,49.4z M1.2,49.4
				l0.1,0.4l-0.1-0.3L3.2,49l0,0.1l0.1,0.2L3.2,49L5,48.6l0-0.1L1.2,49.4z"/>
		</g>
		<g>
			<path class="st0" d="M1.9,53.5l4.8,0.2l0.2,0.5l-3.4,3.3l-0.2-0.7l0.9-0.8l-0.7-2H2.2L1.9,53.5z M3.9,54.2l0.6,1.6l1.7-1.5
				L3.9,54.2z"/>
			<path class="st0" d="M3.4,58L3,56.9l0.9-0.8l-0.6-1.7H2l-0.5-1.1l5.4,0.3l0.3,0.8L3.4,58z M3.6,57l0,0.1l3-3l0,0l-2.2,2l-0.8-2.2
				l3,0.1l0,0l-4.2-0.2l0,0.1h1.2l0.9,2.3L3.6,57z M4.3,54.4l0.3,0.9l0.9-0.8L4.3,54.4z"/>
		</g>
		<g>
			<path class="st0" d="M4.2,58.9l3.9-2.1l0.6,1.2C8.9,58.4,9,58.8,9,59.3c-0.1,0.4-0.3,0.7-0.6,0.8c-0.3,0.2-0.7,0.2-1,0
				c-0.4-0.2-0.6-0.5-0.8-0.9l-0.3-0.6l-1.7,0.9L4.2,58.9z M6.6,58.3l0.3,0.6c0.3,0.6,0.7,0.8,1.1,0.6c0.4-0.2,0.5-0.6,0.2-1.2
				l-0.3-0.6L6.6,58.3z"/>
			<path class="st0" d="M7.9,60.4c-0.2,0-0.4-0.1-0.6-0.2c-0.4-0.2-0.7-0.6-0.9-1l-0.2-0.4l-1.7,0.9l-0.6-0.9l4.4-2.3l0.7,1.4
				c0.2,0.4,0.3,0.9,0.3,1.3c-0.1,0.5-0.4,0.8-0.8,1C8.3,60.4,8.1,60.4,7.9,60.4z M7.3,59.7c0.1,0.1,0.1,0.1,0.2,0.2
				C7.7,60,8,60,8.2,59.8c0.3-0.1,0.4-0.4,0.5-0.6c0-0.3-0.1-0.7-0.2-1l-0.5-1L4.5,59l0.1,0.1l1.7-0.9l0,0L8,57.3l0.4,0.8
				c0.5,0.9,0.1,1.4-0.3,1.6c-0.2,0.1-0.5,0.2-0.7,0.1C7.4,59.8,7.3,59.7,7.3,59.7z M7,58.4l0.2,0.4c0.2,0.3,0.3,0.5,0.5,0.5
				c0.1,0,0.2,0,0.3-0.1c0.1-0.1,0.4-0.2,0-0.9L7.8,58L7,58.4z"/>
		</g>
		<g>
			<path class="st0" d="M7.6,64.8c-0.4-0.5-0.5-1.1-0.4-1.7c0.1-0.6,0.5-1.2,1-1.5c0.5-0.4,1.1-0.5,1.7-0.4c0.6,0.1,1.2,0.5,1.5,1
				c0.4,0.5,0.5,1.1,0.5,1.7c-0.1,0.6-0.5,1.2-1,1.5c-0.5,0.4-1.1,0.5-1.7,0.4C8.5,65.7,7.9,65.3,7.6,64.8z M8,64.5
				c0.3,0.4,0.7,0.6,1.1,0.7c0.5,0,0.9-0.1,1.3-0.4c0.4-0.3,0.7-0.7,0.8-1.1c0.1-0.4,0-0.9-0.3-1.3c-0.3-0.4-0.7-0.6-1.1-0.7
				c-0.5-0.1-0.9,0.1-1.3,0.4c-0.4,0.3-0.7,0.7-0.8,1.2C7.7,63.7,7.8,64.1,8,64.5z"/>
			<path class="st0" d="M9.5,66.1c-0.1,0-0.3,0-0.4,0c-0.7-0.1-1.3-0.5-1.7-1.1C7,64.4,6.8,63.7,6.9,63C7,62.4,7.4,61.7,8,61.4
				c0.5-0.4,1.2-0.6,1.9-0.5c0.7,0.1,1.3,0.5,1.7,1.1c0.4,0.5,0.6,1.2,0.5,1.9c-0.1,0.7-0.5,1.3-1.1,1.7C10.6,65.9,10,66.1,9.5,66.1
				z M9.5,61.3c-0.4,0-0.9,0.1-1.2,0.4c-0.5,0.3-0.8,0.8-0.9,1.4c-0.1,0.5,0.1,1.1,0.4,1.5l0,0c0.3,0.5,0.8,0.8,1.3,0.9
				c0.5,0.1,1.1,0,1.5-0.4c0.5-0.3,0.8-0.8,0.9-1.4c0.1-0.6-0.1-1.1-0.4-1.5c-0.3-0.5-0.8-0.8-1.4-0.9C9.7,61.4,9.6,61.3,9.5,61.3z
				 M9.4,65.4c-0.1,0-0.1,0-0.2,0c-0.5-0.1-1-0.3-1.3-0.8c-0.3-0.4-0.4-0.9-0.3-1.4c0.1-0.5,0.4-1,0.9-1.3c0.4-0.3,0.9-0.5,1.5-0.4
				c0.5,0.1,1,0.3,1.3,0.8c0.3,0.4,0.4,0.9,0.3,1.5c-0.1,0.5-0.4,1-0.9,1.3C10.2,65.3,9.8,65.4,9.4,65.4z M9.6,62
				c-0.3,0-0.7,0.1-0.9,0.3c-0.4,0.2-0.6,0.6-0.7,1c-0.1,0.4,0,0.7,0.3,1l0,0c0.2,0.3,0.6,0.5,0.9,0.6c0.4,0,0.8-0.1,1.1-0.3
				c0.4-0.2,0.6-0.6,0.7-1c0.1-0.4,0-0.8-0.2-1.1c-0.2-0.3-0.6-0.5-0.9-0.6C9.7,62,9.6,62,9.6,62z"/>
		</g>
		<g>
			<path class="st0" d="M11.9,69.7l1.3-1.2c-0.3-0.2-0.6-0.4-0.8-0.6c-0.3-0.3-0.5-0.6-0.5-1c0-0.3,0.2-0.7,0.4-0.9l1.1-1.1l0.4,0.4
				l-1,1c-0.3,0.3-0.4,0.7-0.1,1.1c0,0.1,0.1,0.1,0.1,0.1c0.2,0.2,0.5,0.4,0.8,0.6l1.5-1.5l0.4,0.4l-3.2,3.1L11.9,69.7z"/>
			<path class="st0" d="M12.3,70.5l-0.8-0.8l1.2-1.2c-0.2-0.1-0.4-0.3-0.6-0.5c-0.3-0.3-0.5-0.7-0.6-1.1c0-0.5,0.2-0.9,0.5-1.1
				l1.3-1.2l0.8,0.8L13,66.5c-0.2,0.2-0.3,0.5-0.1,0.7c0,0,0.1,0.1,0.1,0.1c0.2,0.2,0.4,0.4,0.6,0.5l1.6-1.5l0.8,0.8L12.3,70.5z
				 M12.3,69.7L12.3,69.7l2.9-2.6L15.1,67l-1.5,1.4l-0.2-0.1c-0.3-0.2-0.6-0.4-0.8-0.6c0,0-0.1-0.1-0.1-0.2
				c-0.3-0.4-0.3-1.1,0.2-1.4l0.8-0.8l-0.1-0.1l-0.9,0.9c-0.2,0.2-0.3,0.4-0.3,0.7c0,0.3,0.2,0.6,0.5,0.8c0.2,0.2,0.5,0.4,0.8,0.6
				l0.3,0.2L12.3,69.7z"/>
		</g>
		<g>
			<path class="st0" d="M13.8,71.6l2.8-3.4l0.5,0.4l-1.2,1.4l1.8,1.4l1.1-1.4l0.5,0.4l-2.8,3.4L16,73.3l1.3-1.6l-1.8-1.4l-1.3,1.6
				L13.8,71.6z"/>
			<path class="st0" d="M16.6,74.1l-0.9-0.7l1.3-1.6l-1.4-1.1l-1.3,1.6l-0.8-0.7l3.1-3.8l0.9,0.7l-1.1,1.4l1.4,1.1l1.2-1.5l0.8,0.7
				L16.6,74.1z M16.4,73.3L16.4,73.3l2.5-3l-0.1-0.1l-1.1,1.4L15.6,70l1.2-1.4l-0.1-0.1l-2.4,3.1l0.1,0.1l1.3-1.6l2.1,1.7L16.4,73.3
				z"/>
		</g>
		<g>
			<path class="st0" d="M20,76.1c-0.5-0.3-1-0.8-1.1-1.4c-0.2-0.6-0.1-1.2,0.3-1.8c0.3-0.5,0.8-1,1.4-1.1c1.3-0.3,2.5,0.5,2.9,1.7
				c0.2,0.6,0.1,1.2-0.2,1.8c-0.3,0.6-0.8,1-1.4,1.1C21.2,76.5,20.6,76.4,20,76.1z M20.3,75.6c0.4,0.2,0.9,0.3,1.3,0.2
				c0.4-0.1,0.8-0.5,1-0.9c0.2-0.4,0.3-0.9,0.2-1.3c-0.1-0.4-0.4-0.8-0.8-1c-0.4-0.2-0.9-0.3-1.3-0.2c-0.4,0.1-0.8,0.5-1,0.9
				c-0.2,0.4-0.3,0.9-0.2,1.3C19.6,75,19.9,75.4,20.3,75.6z"/>
			<path class="st0" d="M21.3,76.7c-0.5,0-1-0.1-1.4-0.4c-0.6-0.3-1-0.9-1.2-1.5c-0.2-0.7-0.1-1.4,0.3-2c0.3-0.6,0.9-1,1.5-1.2
				c1.4-0.3,2.8,0.5,3.2,1.8c0.2,0.7,0.1,1.4-0.3,2c-0.3,0.6-0.9,1.1-1.6,1.2C21.7,76.7,21.5,76.7,21.3,76.7z M21.1,72
				c-0.2,0-0.3,0-0.5,0.1c-0.5,0.1-1,0.5-1.2,1c-0.3,0.5-0.4,1.1-0.2,1.6c0.1,0.5,0.5,1,1,1.2l0,0c0.5,0.3,1.1,0.4,1.6,0.3
				c0.5-0.1,1-0.5,1.3-1c0.3-0.5,0.4-1.1,0.2-1.6C23,72.6,22.1,72,21.1,72z M21.1,76.1c-0.3,0-0.7-0.1-1-0.3
				c-0.5-0.2-0.8-0.6-0.9-1.1c-0.1-0.5,0-1.1,0.3-1.5c0.2-0.4,0.6-0.8,1.1-1c0.5-0.2,1.1-0.1,1.5,0.2c0.4,0.2,0.8,0.6,0.9,1.1
				c0.1,0.5,0,1.1-0.3,1.5c-0.2,0.4-0.6,0.8-1.1,1C21.5,76.1,21.3,76.1,21.1,76.1z M21.2,72.6c-0.1,0-0.3,0-0.4,0.1
				c-0.4,0.1-0.7,0.4-0.9,0.7c-0.2,0.4-0.3,0.8-0.2,1.2c0.1,0.3,0.3,0.7,0.7,0.8l0,0c0.3,0.2,0.7,0.3,1.1,0.1
				c0.4-0.1,0.7-0.4,0.9-0.7c0.2-0.4,0.3-0.8,0.2-1.2c-0.1-0.4-0.3-0.7-0.7-0.8C21.7,72.7,21.5,72.6,21.2,72.6z"/>
		</g>
		<g>
			<path class="st0" d="M23.8,77.9l1.7-4.1l2.4,1l-0.2,0.5l-1.8-0.8l-1.5,3.6L23.8,77.9z"/>
			<path class="st0" d="M24.5,78.5l-1-0.5l1.9-4.5l2.8,1.2l-0.4,1L26,74.9L24.5,78.5z M24.1,77.8l0.1,0l1.5-3.6l1.8,0.8l0,0
				l-1.9-0.8L24.1,77.8z"/>
		</g>
		<g>
			<path class="st0" d="M29.4,80c-0.6-0.2-1.1-0.5-1.4-1.1c-0.7-1.1-0.3-2.5,0.8-3.2c0.6-0.3,1.2-0.4,1.9-0.2
				c0.6,0.1,1.1,0.5,1.4,1.1c0.3,0.5,0.4,1.2,0.2,1.8c-0.1,0.6-0.5,1.1-1.1,1.4C30.6,80.1,30,80.2,29.4,80z M29.5,79.5
				c0.4,0.1,0.9,0.1,1.3-0.2c0.8-0.5,1-1.6,0.7-2.4c-0.4-0.8-1.5-1.1-2.3-0.7c0,0,0,0-0.1,0c-0.8,0.5-1.1,1.6-0.7,2.4
				C28.7,79.1,29.1,79.4,29.5,79.5z"/>
			<path class="st0" d="M30.1,80.4c-0.2,0-0.5,0-0.7-0.1c-0.7-0.2-1.2-0.6-1.6-1.2c-0.3-0.6-0.4-1.3-0.3-1.9
				c0.2-0.7,0.6-1.2,1.2-1.6c0.6-0.4,1.4-0.5,2.1-0.2c0.7,0.2,1.2,0.6,1.6,1.2c0.3,0.6,0.4,1.3,0.2,2c-0.2,0.7-0.6,1.2-1.2,1.6
				C30.9,80.3,30.5,80.4,30.1,80.4z M29.9,75.7c-0.4,0-0.7,0.1-1.1,0.3c-0.5,0.3-0.8,0.7-0.9,1.3c-0.1,0.5-0.1,1.1,0.2,1.6
				c0.3,0.5,0.7,0.8,1.3,1l0,0c0.5,0.2,1.1,0.1,1.6-0.2c0.5-0.3,0.8-0.7,1-1.3c0.2-0.5,0.1-1.1-0.2-1.6c-0.3-0.5-0.8-0.8-1.3-1
				C30.4,75.7,30.2,75.7,29.9,75.7z M30,79.8c-0.2,0-0.4,0-0.5-0.1c-0.5-0.1-0.9-0.5-1.2-0.9c-0.5-1-0.1-2.1,0.8-2.8l0.1,0
				c0.5-0.2,1-0.3,1.5-0.2c0.5,0.1,0.9,0.5,1.2,0.9c0.4,1,0.1,2.1-0.7,2.8C30.7,79.7,30.4,79.8,30,79.8z M30,76.3
				c-0.2,0-0.5,0.1-0.7,0.2c-0.7,0.5-1,1.4-0.6,2.1c0.2,0.3,0.5,0.6,0.9,0.7l0,0c0.4,0.1,0.8,0.1,1.1-0.1c0.7-0.5,0.9-1.4,0.6-2.1
				c-0.2-0.3-0.5-0.6-0.8-0.7C30.3,76.3,30.2,76.3,30,76.3z"/>
		</g>
		<g>
			<path class="st0" d="M35.7,81.2l0.3-4.4l3.4,0.2l-0.3,4.4h-0.6l0.3-3.9l-2.2-0.1l-0.3,3.9L35.7,81.2z"/>
			<path class="st0" d="M39.4,81.6h-1.1l0.3-3.9l-1.7-0.1l-0.3,3.9l-1.1-0.1l0.3-4.9l3.9,0.3L39.4,81.6z M38.8,81.1h0.1l0.3-3.9
				L36.2,77L36,80.9l0.1,0l0.2-3.8l2.7,0.2L38.8,81.1z"/>
		</g>
		<g>
			<path class="st0" d="M41.2,81.4L40.9,77l1.4-0.1c0.4,0,0.8,0,1.2,0.2c0.5,0.4,0.6,1.2,0.2,1.7c0,0-0.1,0.1-0.1,0.1
				c-0.3,0.2-0.7,0.4-1.2,0.4h-0.7l0.1,1.9L41.2,81.4z M41.6,78.9h0.7c0.7,0,1-0.3,1-0.8s-0.4-0.7-1-0.6h-0.7L41.6,78.9z"/>
			<path class="st0" d="M40.9,81.6l-0.3-4.9l1.6-0.1c0.4-0.1,0.9,0,1.3,0.3c0.3,0.3,0.5,0.6,0.6,1c0,0.4-0.1,0.8-0.3,1.1
				c0,0.1-0.1,0.1-0.1,0.2c-0.4,0.3-0.9,0.4-1.3,0.4c0,0,0,0,0,0H42l0.1,1.9L40.9,81.6z M41.2,77.2l0.2,3.9l0.1,0l-0.1-1.9h0l0-1.9
				h0.9c0.4,0,0.8,0.1,1,0.3c0.2,0.2,0.3,0.4,0.3,0.6c0,0.4-0.2,0.7-0.6,0.9c0.1-0.1,0.3-0.1,0.4-0.2c0,0,0,0,0.1-0.1
				c0.3-0.4,0.3-1-0.2-1.4c-0.3-0.2-0.6-0.2-1-0.2L41.2,77.2z M41.9,78.6h0.4c0.8,0,0.8-0.4,0.8-0.5c0-0.1,0-0.2-0.1-0.3
				c-0.1-0.1-0.3-0.1-0.6-0.1l-0.4,0L41.9,78.6z"/>
		</g>
		<g>
			<path class="st0" d="M47.9,80.7c-0.6,0.1-1.2,0-1.8-0.3c-0.5-0.3-0.9-0.9-1-1.5c-0.1-0.6,0-1.3,0.3-1.8c0.4-0.5,0.9-0.9,1.5-0.9
				c0.6-0.1,1.2,0,1.8,0.3c0.5,0.3,0.9,0.9,1,1.5c0.1,0.6,0,1.2-0.3,1.8C49.1,80.2,48.6,80.6,47.9,80.7z M47.8,80.2
				c0.5-0.1,0.9-0.3,1.1-0.7c0.2-0.4,0.3-0.9,0.2-1.3c-0.1-0.5-0.3-0.9-0.7-1.2c-0.4-0.3-0.8-0.4-1.3-0.3c-0.5,0.1-0.8,0.3-1.1,0.7
				c-0.2,0.4-0.3,0.9-0.2,1.3c0.1,0.5,0.3,0.9,0.7,1.2C46.9,80.2,47.4,80.3,47.8,80.2z"/>
			<path class="st0" d="M47.4,81c-0.5,0-1-0.1-1.4-0.4c-0.6-0.4-1-1-1.1-1.7c-0.2-0.7,0-1.4,0.4-2c0.4-0.6,1-0.9,1.7-1.1
				c0.7-0.2,1.4,0,2,0.3c0.6,0.4,1,1,1.1,1.7c0.2,0.7,0,1.4-0.4,1.9c-0.4,0.6-1,1-1.7,1.1C47.8,81,47.6,81,47.4,81z M47.5,76.3
				c-0.2,0-0.3,0-0.5,0.1c-0.6,0.1-1,0.4-1.4,0.8c-0.3,0.5-0.4,1-0.3,1.6c0.1,0.6,0.4,1.1,0.9,1.4c0.5,0.3,1,0.4,1.6,0.3l0,0
				c0.5-0.1,1-0.4,1.4-0.9c0.3-0.5,0.4-1,0.3-1.6c-0.1-0.6-0.4-1.1-0.9-1.4C48.3,76.5,47.9,76.3,47.5,76.3z M47.5,80.4
				c-0.4,0-0.8-0.1-1.1-0.4c-0.4-0.3-0.7-0.8-0.8-1.3c-0.1-0.5,0-1,0.2-1.5c0.3-0.5,0.7-0.8,1.3-0.8c0.5-0.1,1,0,1.5,0.3
				c0.4,0.3,0.7,0.8,0.8,1.3c0.1,0.5,0,1-0.2,1.5c-0.3,0.5-0.7,0.8-1.3,0.8C47.7,80.4,47.6,80.4,47.5,80.4z M47.5,76.9
				c-0.1,0-0.2,0-0.3,0c-0.4,0.1-0.7,0.3-0.9,0.6c-0.2,0.3-0.3,0.8-0.2,1.1c0.1,0.4,0.3,0.8,0.6,1c0.3,0.2,0.7,0.3,1.1,0.2l0,0
				c0.4-0.1,0.7-0.3,0.9-0.6c0.2-0.3,0.3-0.8,0.2-1.1c-0.1-0.4-0.3-0.8-0.6-1C48,77,47.8,76.9,47.5,76.9z"/>
		</g>
		<g>
			<path class="st0" d="M52,79.6l-1.5-4.2l0.6-0.2l1.2,3.3l0,0l0.9-4.1l0.6-0.2l1.5,4.2l-0.6,0.2l-1.2-3.3l0,0l-0.9,4L52,79.6z"/>
			<path class="st0" d="M51.9,79.9l-1.7-4.6l1.1-0.4l1,2.7l0.7-3.3l1-0.4l1.7,4.6l-1.1,0.4l-1-2.7l-0.7,3.3L51.9,79.9z M50.8,75.6
				l1.3,3.7l0.1,0L51,75.5L50.8,75.6z M53.4,74.7l-1,4.5l0,0L53.4,74.7L53.4,74.7z M53.5,74.6l1.3,3.7l0.1,0l-1.3-3.7L53.5,74.6z"/>
		</g>
		<g>
			<path class="st0" d="M58.3,77.1c-0.5,0.3-1.1,0.3-1.7,0.1l0.2-0.6c0.4,0.2,0.8,0.2,1.2,0c0.2-0.1,0.4-0.3,0.5-0.5
				c0.1-0.2,0.1-0.5,0-0.7c-0.2-0.5-0.7-0.5-1.3-0.2l-0.3,0.1L56.7,75l0.3-0.1c0.6-0.3,0.8-0.7,0.5-1.1c-0.1-0.2-0.2-0.3-0.4-0.3
				c-0.2,0-0.4,0-0.6,0.1c-0.3,0.1-0.6,0.5-0.7,0.8l-0.5-0.2c0.1-0.5,0.5-0.9,1-1.1c0.3-0.2,0.7-0.3,1.1-0.2
				c0.3,0.1,0.6,0.3,0.7,0.6c0.1,0.2,0.2,0.4,0.1,0.7c0,0.2-0.2,0.4-0.3,0.6l0,0c0.3-0.1,0.5-0.1,0.8,0c0.2,0.1,0.4,0.3,0.6,0.5
				c0.2,0.3,0.2,0.7,0,1.1C59,76.6,58.7,76.9,58.3,77.1z"/>
			<path class="st0" d="M57.3,77.6c-0.3,0-0.5-0.1-0.8-0.2l-0.2-0.1l0.4-1.1l0.3,0.1c0.3,0.2,0.7,0.2,0.9,0c0.2-0.1,0.3-0.2,0.4-0.4
				c0.1-0.2,0.1-0.3,0-0.5c-0.1-0.1-0.1-0.2-0.2-0.2c-0.2-0.1-0.4,0-0.8,0.2l-0.5,0.3l-0.5-0.9l0.5-0.2c0.7-0.3,0.5-0.6,0.4-0.8
				c-0.1-0.1-0.2-0.2-0.3-0.2c-0.1,0-0.3,0-0.5,0.1c-0.3,0.1-0.5,0.4-0.5,0.6L56,74.6l-1-0.3L55,74c0.2-0.6,0.6-1.1,1.1-1.3
				c0.3-0.2,0.8-0.3,1.2-0.2c0.4,0.1,0.8,0.4,0.9,0.7c0.1,0.2,0.2,0.5,0.1,0.8c0,0.1,0,0.1-0.1,0.2c0.1,0,0.2,0,0.3,0.1
				c0.3,0.1,0.6,0.3,0.7,0.6c0.2,0.4,0.2,0.9,0,1.3c-0.2,0.4-0.6,0.8-1,1C58.1,77.5,57.7,77.6,57.3,77.6z M56.9,77.1
				c0.4,0.1,0.8,0,1.2-0.2l0,0c0.3-0.2,0.6-0.4,0.8-0.8c0.1-0.3,0.1-0.6,0-0.9c-0.1-0.2-0.2-0.3-0.4-0.4c-0.1,0-0.3-0.1-0.4,0
				c0,0,0.1,0,0.1,0c0.2,0.1,0.4,0.2,0.5,0.5c0.1,0.3,0.1,0.6,0,0.9c-0.1,0.3-0.3,0.5-0.6,0.6C57.8,77.1,57.4,77.1,56.9,77.1
				L56.9,77.1z M56.9,73.1c0.1,0,0.1,0,0.2,0c0.3,0.1,0.5,0.2,0.6,0.5c0.1,0.2,0.2,0.5,0.1,0.8c0.1-0.1,0.2-0.2,0.2-0.4
				c0-0.2,0-0.3-0.1-0.5c-0.1-0.3-0.3-0.4-0.6-0.5c-0.3,0-0.6,0-0.8,0.1C56.6,73.1,56.8,73.1,56.9,73.1z M55.6,74L55.6,74
				c0.1-0.1,0.1-0.2,0.2-0.3C55.7,73.8,55.6,73.9,55.6,74z"/>
		</g>
		<g>
			<path class="st0" d="M61.3,75.4l-2.5-3.7l1.3-0.8c0.3-0.2,0.6-0.3,1-0.3c0.3,0,0.6,0.2,0.8,0.5c0.1,0.2,0.2,0.4,0.2,0.6
				c0,0.2-0.1,0.4-0.3,0.6l0,0c0.2-0.1,0.5-0.2,0.8-0.1c0.3,0.1,0.5,0.2,0.6,0.5c0.2,0.3,0.3,0.7,0.1,1c-0.2,0.4-0.4,0.7-0.8,0.9
				L61.3,75.4z M60.3,72.9l0.7-0.4c0.2-0.1,0.3-0.3,0.4-0.5c0.1-0.2,0-0.4-0.1-0.6c-0.3-0.4-0.6-0.4-1.2,0l-0.6,0.4L60.3,72.9z
				 M61.4,74.6l0.6-0.4c0.1-0.1,0.3-0.2,0.4-0.3c0.1-0.1,0.2-0.3,0.2-0.4c0-0.2,0-0.3-0.1-0.5c-0.3-0.4-0.7-0.4-1.3,0l-0.7,0.5
				L61.4,74.6z"/>
			<path class="st0" d="M61.2,75.7l-2.8-4.1l1.5-1c0.3-0.2,0.7-0.4,1.1-0.4c0.4,0,0.8,0.2,1,0.6c0.2,0.2,0.2,0.5,0.2,0.8
				c0,0.1,0,0.1,0,0.2c0.1,0,0.2,0,0.3,0c0.3,0.1,0.6,0.3,0.8,0.6c0.2,0.3,0.3,0.8,0.2,1.2c-0.2,0.4-0.5,0.8-0.9,1.1L61.2,75.7z
				 M59.1,71.8l2.2,3.2l1-0.7c0.3-0.2,0.6-0.5,0.7-0.8c0.1-0.3,0.1-0.5-0.1-0.8c-0.1-0.2-0.3-0.3-0.5-0.4c-0.1,0-0.2,0-0.3,0
				c0,0,0,0,0,0c0.2,0,0.4,0.2,0.6,0.4c0.1,0.2,0.2,0.4,0.2,0.7c0,0.2-0.1,0.4-0.3,0.5c-0.1,0.2-0.3,0.3-0.5,0.4l-0.8,0.6l-1.1-1.6
				l0.5-0.3l0.2-0.2l-0.7,0.5L59.1,71.8L59.1,71.8z M60.9,73.4l0.6,0.8l0.4-0.3c0.1-0.1,0.2-0.2,0.4-0.3c0.1-0.1,0.1-0.2,0.1-0.3
				c0-0.1,0-0.2-0.1-0.3c-0.1-0.1-0.2-0.2-0.3-0.2c-0.2,0-0.4,0.1-0.7,0.3L60.9,73.4z M59.9,71.9l0.5,0.7l0.5-0.3
				c0.2-0.1,0.3-0.2,0.3-0.4c0-0.1,0-0.2-0.1-0.3c-0.1-0.1-0.2-0.2-0.2-0.2c-0.1,0-0.4,0.1-0.6,0.2L59.9,71.9z M60.8,70.9
				c0.1,0,0.1,0,0.2,0c0.2,0,0.4,0.2,0.5,0.4c0.2,0.2,0.2,0.5,0.1,0.8c0,0,0,0,0,0c0.1-0.1,0.2-0.3,0.2-0.4c0-0.2,0-0.3-0.1-0.5
				c-0.1-0.2-0.4-0.4-0.6-0.4c-0.3,0-0.6,0.1-0.8,0.2C60.4,70.9,60.6,70.9,60.8,70.9z"/>
		</g>
		<g>
			<path class="st0" d="M66.9,71.2c-0.4,0.4-1.1,0.7-1.7,0.6C64,71.7,63,70.6,63,69.3c0.1-1.3,1.2-2.2,2.5-2.3
				c0.6,0,1.2,0.3,1.6,0.8c0.4,0.4,0.7,1.1,0.6,1.7C67.7,70.2,67.4,70.8,66.9,71.2z M66.6,70.8c0.4-0.3,0.6-0.7,0.6-1.2
				c0-0.5-0.2-0.9-0.5-1.3c-0.3-0.4-0.7-0.6-1.2-0.6c-0.5-0.1-0.9,0.1-1.3,0.4c-0.3,0.3-0.5,0.7-0.5,1.2c0,0.5,0.2,0.9,0.5,1.2
				c0.3,0.4,0.7,0.6,1.2,0.6C65.8,71.2,66.2,71.1,66.6,70.8z"/>
			<path class="st0" d="M65.4,72c0,0-0.1,0-0.1,0c-1.4-0.1-2.5-1.3-2.5-2.7c0.1-1.4,1.3-2.5,2.7-2.5c0.7,0,1.4,0.4,1.8,0.9
				c0.5,0.5,0.7,1.2,0.7,1.9c0,0.7-0.4,1.3-0.9,1.8C66.6,71.8,66,72,65.4,72z M65.5,67.3c-1.1,0-2.1,0.9-2.2,2c0,1.1,0.9,2.1,2,2.2
				c0.5,0,1.1-0.2,1.5-0.6l0,0c0.4-0.4,0.7-0.9,0.7-1.4c0-0.5-0.2-1.1-0.6-1.5C66.6,67.6,66,67.3,65.5,67.3z M65.5,71.4
				c-0.1,0-0.1,0-0.2,0c-0.5-0.1-1-0.3-1.4-0.7c-0.4-0.4-0.6-0.9-0.6-1.4c0-0.5,0.2-1,0.6-1.4c0.4-0.4,0.9-0.5,1.4-0.5
				c0.5,0.1,1,0.3,1.4,0.7c0.4,0.4,0.6,0.9,0.6,1.4c0,0.5-0.2,1-0.6,1.4C66.4,71.3,65.9,71.4,65.5,71.4z M65.3,67.9
				c-0.3,0-0.7,0.1-0.9,0.4c-0.3,0.3-0.5,0.6-0.5,1c0,0.4,0.2,0.8,0.4,1.1c0.3,0.3,0.6,0.5,1,0.6c0.4,0,0.8-0.1,1-0.4l0,0
				c0.3-0.2,0.5-0.6,0.5-1c0-0.4-0.2-0.8-0.4-1.1c-0.3-0.3-0.6-0.5-1-0.5C65.4,67.9,65.3,67.9,65.3,67.9z"/>
		</g>
		<g>
			<path class="st0" d="M70.3,69.3l-1.2-1l0.2-0.3c-0.2-0.9-0.8-1.7-1.6-2.3L66.7,65l1.8-2.2l3,2.5l0.3-0.4l1.2,1l-0.3,0.4L72,65.6
				l-2.1,2.6l0.8,0.7L70.3,69.3z M69.7,67.4l1.5-1.8l-2.6-2.1l-1.1,1.3l0.5,0.4C68.9,65.8,69.5,66.5,69.7,67.4L69.7,67.4z"/>
			<path class="st0" d="M70.3,69.6l-1.6-1.3l0.1-0.2l0,0l0.2-0.3c-0.2-0.8-0.8-1.5-1.5-2L66.4,65l2.2-2.6l3,2.5l0.3-0.4l1.6,1.3
				l-0.7,0.8L72,65.9l-1.8,2.2l0.8,0.7L70.3,69.6z M69.4,68.2l0.8,0.7l0-0.1L69.4,68.2l0.6-0.7l-0.5,0.3c0,0,0,0.1,0,0.1l0,0.1
				L69.4,68.2z M70.1,67.4L70.1,67.4l1.4-1.7L70.1,67.4z M67.1,64.9l0.7,0.6c0.7,0.5,1.2,1.1,1.6,1.9l0.1-0.1
				c-0.3-0.7-0.8-1.4-1.5-1.9l-0.7-0.6l1.4-1.7l2.9,2.4l0.3-0.4l0.8,0.7l0,0l-0.8-0.7l-0.3,0.4l-3-2.5L67.1,64.9z M68,64.8l0.3,0.3
				c0.7,0.5,1.2,1.1,1.5,1.8l1.1-1.2l-2.2-1.8L68,64.8z"/>
		</g>
		<g>
			<path class="st0" d="M74.5,62c-0.6,1.1-2,1.5-3.1,0.9c0,0-0.1-0.1-0.1-0.1c-0.5-0.3-0.9-0.9-1-1.5c-0.1-0.6,0-1.3,0.3-1.8
				c0.2-0.3,0.4-0.5,0.6-0.7c0.2-0.2,0.5-0.3,0.8-0.3l0.1,0.6c-0.2,0-0.4,0.1-0.6,0.2c-0.2,0.1-0.3,0.3-0.4,0.5
				c-0.3,0.4-0.3,0.9-0.2,1.3c0.1,0.4,0.4,0.8,0.8,1c0.4,0.3,0.9,0.4,1.3,0.3c0.4-0.1,0.8-0.4,1.1-0.8c0.3-0.4,0.3-0.9,0.1-1.3
				l0.6-0.2C75,60.7,74.9,61.4,74.5,62z"/>
			<path class="st0" d="M72.5,63.4c-0.4,0-0.8-0.1-1.2-0.3c-0.1,0-0.1-0.1-0.2-0.1c-0.6-0.4-1-1-1.2-1.6c-0.1-0.7,0-1.4,0.4-2
				c0.2-0.3,0.4-0.5,0.7-0.7c0.3-0.2,0.6-0.3,0.9-0.4l0.3,0l0.1,1.1l-0.3,0c-0.2,0-0.3,0.1-0.4,0.2c-0.2,0.1-0.3,0.2-0.4,0.4
				c-0.2,0.3-0.3,0.7-0.2,1.1c0.1,0.4,0.4,0.7,0.7,0.9c0.4,0.2,0.8,0.3,1.2,0.3c0.4-0.1,0.7-0.3,0.9-0.6c0.2-0.3,0.3-0.7,0.1-1.1
				l-0.1-0.2l1-0.4l0.1,0.2c0.3,0.7,0.2,1.5-0.3,2.2C74.3,62.9,73.4,63.4,72.5,63.4z M71.8,58.8c-0.1,0-0.3,0.1-0.4,0.2
				c-0.2,0.2-0.4,0.4-0.6,0.6c-0.3,0.5-0.4,1-0.3,1.6c0.1,0.5,0.5,1,0.9,1.3c0,0,0.1,0.1,0.1,0.1c1,0.5,2.2,0.2,2.7-0.8l0,0
				c0.3-0.4,0.4-1,0.3-1.5l-0.1,0c0.1,0.4,0,0.9-0.2,1.3c-0.3,0.4-0.7,0.8-1.2,0.9c-0.5,0.1-1.1,0-1.5-0.3c-0.4-0.2-0.8-0.6-0.9-1.1
				c-0.2-0.5-0.1-1.1,0.2-1.5c0.1-0.2,0.3-0.4,0.5-0.5c0.1-0.1,0.3-0.2,0.4-0.2L71.8,58.8z"/>
		</g>
		<g>
			<path class="st0" d="M76.4,58.3l-3.5-1.6l-0.6,1.3l-0.5-0.2l1.4-3.1l0.5,0.2l-0.6,1.3l3.5,1.6L76.4,58.3z"/>
			<path class="st0" d="M76.5,58.6L73,57l-0.6,1.2l-0.9-0.4l1.6-3.6l0.9,0.4l-0.6,1.3l3.5,1.6L76.5,58.6z M72.7,56.3l3.5,1.6
				l0.1-0.1l-3.5-1.6l0.6-1.3l0,0l-1.2,2.7l0,0L72.7,56.3z"/>
		</g>
		<g>
			<path class="st0" d="M77.7,55l-4.2-1.3l0.5-1.5c0.1-0.3,0.3-0.6,0.6-0.8c0.3-0.2,0.6-0.2,0.9-0.1c0.2,0.1,0.4,0.2,0.5,0.4
				c0.1,0.2,0.2,0.4,0.2,0.6l0,0c0.1-0.3,0.3-0.5,0.5-0.6c0.2-0.1,0.5-0.1,0.8,0c0.4,0.1,0.6,0.4,0.8,0.7c0.1,0.4,0.1,0.8-0.1,1.2
				L77.7,55z M75.5,53.6l0.2-0.8c0.1-0.2,0.1-0.4,0-0.7c-0.1-0.2-0.2-0.3-0.4-0.4c-0.4-0.1-0.7,0.1-0.9,0.7l-0.2,0.7L75.5,53.6z
				 M77.4,54.2l0.2-0.7c0.1-0.2,0.1-0.3,0.1-0.5c0-0.2,0-0.3-0.1-0.5c-0.1-0.1-0.2-0.2-0.4-0.3c-0.5-0.2-0.8,0.1-1,0.8L76,53.8
				L77.4,54.2z"/>
			<path class="st0" d="M77.9,55.3l-4.7-1.5l0.5-1.7c0.1-0.4,0.3-0.7,0.6-1c0.3-0.3,0.8-0.3,1.2-0.2c0.3,0.1,0.5,0.3,0.6,0.5
				c0,0.1,0.1,0.1,0.1,0.2c0.1-0.1,0.2-0.1,0.3-0.2c0.3-0.1,0.7-0.1,1,0c0.4,0.1,0.8,0.4,0.9,0.9c0.1,0.5,0.1,0.9-0.1,1.4L77.9,55.3
				z M73.8,53.5l3.7,1.2l0.4-1.1c0.1-0.4,0.2-0.7,0.1-1.1c-0.1-0.3-0.3-0.5-0.6-0.6c-0.2-0.1-0.4-0.1-0.6,0
				c-0.1,0.1-0.2,0.1-0.3,0.3c0,0,0.1-0.1,0.1-0.1c0.2-0.1,0.5-0.1,0.7,0c0.2,0,0.4,0.2,0.5,0.4C78,52.6,78,52.8,78,53
				c0,0.2,0,0.4-0.1,0.6l-0.3,1L75.7,54l0.1-0.3l0-0.2l-0.2,0.5l-1.8-0.6L73.8,53.5z M76.3,53.6l0.9,0.3l0.2-0.5
				c0.1-0.2,0.1-0.3,0.1-0.4c0-0.1,0-0.2-0.1-0.3c0-0.1-0.1-0.1-0.2-0.1c-0.2,0-0.3,0-0.4,0c-0.1,0.1-0.3,0.3-0.4,0.6L76.3,53.6z
				 M74.5,53l0.8,0.3l0.2-0.5c0.1-0.2,0.1-0.3,0-0.5c0-0.1-0.1-0.2-0.2-0.2c-0.1,0-0.4-0.1-0.6,0.6L74.5,53z M75.1,51.4
				c-0.2,0-0.3,0-0.4,0.1c-0.2,0.2-0.4,0.4-0.5,0.7c0.3-0.7,0.8-0.8,1.1-0.7c0.2,0,0.4,0.2,0.5,0.3c0-0.1-0.1-0.1-0.1-0.2
				c-0.1-0.1-0.2-0.2-0.4-0.3C75.3,51.4,75.2,51.4,75.1,51.4z"/>
		</g>
		<g>
			<path class="st0" d="M79,50.7l-4-2.7l0.1-0.6l4.7-1.1l-0.1,0.7l-1.1,0.2l-0.4,2.1l1,0.6L79,50.7z M77.7,49.1l0.3-1.6l-2.2,0.4
				L77.7,49.1z"/>
			<path class="st0" d="M79.2,51.1l-4.4-3l0.2-0.9l5.2-1.2l-0.2,1.2l-1.1,0.2l-0.3,1.7l1,0.6L79.2,51.1z M75.3,47.9l3.6,2.4l0-0.1
				l-1-0.6l0.4-2.4l1.1-0.2l0-0.2l-4.1,0.9l0,0.1l2.9-0.6l-0.4,2.3L75.3,47.9L75.3,47.9z M76.5,48l1,0.7l0.2-0.9L76.5,48z"/>
		</g>
	</g>
	<g>
		<g>
			<g>
				<path class="st0" d="M24.9,50.8c-1.4,0-2.8-0.5-3.8-1.4c-1-1-1.5-2.3-1.5-3.7c-0.1-1.4,0.5-2.8,1.5-3.7c1-0.9,2.4-1.5,3.8-1.4
					c0.7,0,1.4,0.1,2.1,0.4c0.6,0.2,1.2,0.5,1.6,1L27,43.6c-0.2-0.3-0.5-0.5-0.9-0.7c-0.4-0.2-0.7-0.2-1.1-0.2c-0.8,0-1.5,0.3-2,0.8
					c-1.1,1.2-1.1,3.1,0,4.3c0.5,0.6,1.2,0.9,2,0.8c0.8,0,1.6-0.3,2.1-1l1.6,1.6C27.7,50.3,26.3,50.9,24.9,50.8z"/>
			</g>
			<g>
				<path class="st0" d="M29.5,50.6l4.1-9.8h2.3l4.1,9.8h-2.6l-0.8-1.9h-3.8l-0.7,1.9H29.5z M33.5,46.7h2.5l-1.2-3.4L33.5,46.7z"/>
			</g>
			<g>
				<path class="st0" d="M46.3,50.8c-1.4,0-2.8-0.5-3.8-1.4c-1-1-1.5-2.3-1.5-3.7c-0.1-1.4,0.5-2.8,1.5-3.7c1-0.9,2.4-1.5,3.8-1.4
					c0.7,0,1.4,0.1,2.1,0.4c0.6,0.2,1.2,0.5,1.6,1l-1.6,1.6c-0.2-0.3-0.5-0.5-0.8-0.7c-0.4-0.2-0.7-0.2-1.1-0.2
					c-0.8,0-1.5,0.3-2,0.8c-0.5,0.6-0.8,1.4-0.8,2.2c0,0.8,0.2,1.6,0.8,2.2c0.5,0.5,1.2,0.9,2,0.8c0.8,0,1.6-0.3,2.1-1l1.7,1.6
					C49.1,50.3,47.7,50.9,46.3,50.8z"/>
			</g>
			<g>
				<path class="st0" d="M52.1,50.6v-9.8h8.5v9.8h-2.3v-7.8h-3.8v7.8H52.1z"/>
			</g>
			<g>
				<polygon class="st1" points="67.1,32.8 48.4,32.9 40.1,13.2 31.8,32.9 13.2,32.8 18.7,38.2 61.5,38.2 				"/>
			</g>
			<g>
				<polygon class="st1" points="23.4,64.5 40.1,55.7 56.8,64.5 54.8,53.1 25.4,53.1 				"/>
			</g>
		</g>
		<g>
			<circle class="st1" cx="2" cy="35.4" r="1.4"/>
		</g>
		<g>
			<circle class="st1" cx="76.8" cy="35.4" r="1.4"/>
		</g>
	</g>
</g>
</svg>
