<?xml version="1.0" encoding="utf-8"?>
<!-- Generator: Adobe Illustrator 22.0.1, SVG Export Plug-In . SVG Version: 6.00 Build 0)  -->
<svg version="1.1" id="_1" xmlns="http://www.w3.org/2000/svg" xmlns:xlink="http://www.w3.org/1999/xlink" x="0px" y="0px"
	 viewBox="0 0 53.8 39" style="enable-background:new 0 0 53.8 39;" xml:space="preserve">
<style type="text/css">
	.st0{fill:#FFFFFF;}
	.st1{fill:#FF6200;}
</style>
<title>logo_gac_rb</title>
<path class="st0" d="M47.1,11.7L34,22l9.2,1.3H32.8c0.1-0.5-0.3-1-0.9-1.1c-0.5-0.1-1,0.3-1.1,0.9l0,0h-2.4c0-0.1-0.1-0.3-0.1-0.4
	l2.1-1.2c0.4,0.4,1,0.5,1.4,0.1c0.4-0.4,0.5-1,0.1-1.4s-1-0.5-1.4-0.1c-0.3,0.3-0.4,0.7-0.3,1.1l-2.1,1.2c-0.1-0.1-0.2-0.2-0.3-0.3
	L29,20c0.5,0.2,1.1-0.1,1.3-0.6c0.2-0.5-0.1-1.1-0.6-1.3c-0.5-0.2-1.1,0.1-1.3,0.6c-0.1,0.4,0,0.8,0.3,1.1l-1.2,2.1
	c-0.1-0.1-0.3-0.1-0.4-0.1v-2.4c0.5-0.1,0.9-0.6,0.8-1.2c-0.1-0.5-0.6-0.9-1.2-0.8c-0.5,0.1-0.9,0.6-0.8,1.2
	c0.1,0.4,0.4,0.7,0.8,0.8v2.4c-0.1,0-0.3,0.1-0.4,0.1l-1.2-2.1c0.4-0.4,0.5-1,0.1-1.4s-1-0.5-1.4-0.1s-0.5,1-0.1,1.4
	c0.3,0.3,0.7,0.4,1.1,0.3l1.2,2.1c-0.1,0.1-0.2,0.2-0.3,0.3l-2.1-1.2c0.2-0.5-0.1-1.1-0.6-1.2s-1.1,0.1-1.2,0.6
	c-0.2,0.5,0.1,1.1,0.6,1.2c0.4,0.1,0.8,0,1-0.3l2.1,1.2c-0.1,0.1-0.1,0.3-0.1,0.4H23c-0.1-0.5-0.6-0.9-1.2-0.8
	c-0.5,0.1-0.8,0.5-0.8,1H10.6l9.2-1.3L6.6,11.7l15.5,6.2l-3.4-8.6l5.7,7.3L26.9,0l2.4,16.5L35,9.2l-3.4,8.6L47.1,11.7z M7.9,30.4
	H2.5V39H0V28.7h8.1v1.8L7.9,30.4z M53.8,35.6c0-0.9-0.4-1.8-1.1-2.3c-0.7-0.6-1.6-1-2.5-1h-4.4v-1.9h6.3v-1.7h-8.8V39h7.1
	c1,0,2-0.4,2.6-1.1C53.5,37.2,53.8,36.4,53.8,35.6z M50.9,35.7c0,0.4-0.2,0.8-0.5,1.1c-0.4,0.3-0.8,0.4-1.3,0.4h-3.3V34h3.4
	c0.5,0,0.9,0.2,1.2,0.5C50.7,34.8,50.9,35.3,50.9,35.7z M42.6,32.1c0,0.9-0.4,1.8-1.1,2.3c-0.7,0.6-1.6,1-2.5,1h-4.4V39H32V28.7h7.1
	c1,0,2,0.4,2.6,1.1C42.3,30.4,42.6,31.3,42.6,32.1z M39.7,32c0-0.4-0.2-0.9-0.5-1.1c-0.4-0.3-0.8-0.4-1.3-0.4h-3.3v3.2H38
	c0.5,0,0.9-0.2,1.2-0.5S39.7,32.4,39.7,32L39.7,32z M27.3,39h-9.7V28.7h2.5v8.5h4.7v-8.5h2.5v8.4h1.4V39H27.3L27.3,39z M17.2,39
	l-4.4-10.3h-2.5L6,39h2.5l0.9-2.4h4.3l0.9,2.4H17.2z M12.9,34.8h-2.7l1.4-3.6L12.9,34.8z"/>
<path class="st1" d="M26,25H8.7v2.3H26V25L26,25z M45.1,25H27.8v2.3h17.3V25z"/>
</svg>
